<?xml version="1.0" encoding="UTF-8" standalone="no"?>
<!-- Created with Inkscape (http://www.inkscape.org/) -->

<svg
   version="1.1"
   id="svg1"
   width="112.58095"
   height="109.41856"
   viewBox="0 0 112.58095 109.41856"
   sodipodi:docname="ícone1.svg"
   inkscape:version="1.3.2 (091e20e, 2023-11-25, custom)"
   xmlns:inkscape="http://www.inkscape.org/namespaces/inkscape"
   xmlns:sodipodi="http://sodipodi.sourceforge.net/DTD/sodipodi-0.dtd"
   xmlns="http://www.w3.org/2000/svg"
   xmlns:svg="http://www.w3.org/2000/svg">
  <defs
     id="defs1">
    <clipPath
       clipPathUnits="userSpaceOnUse"
       id="clipPath24531">
      <rect
         style="opacity:0.375661;fill:#acacac;fill-opacity:1"
         id="rect24531"
         width="124.56335"
         height="109.4308"
         x="480.24152"
         y="160.82671" />
    </clipPath>
  </defs>
  <sodipodi:namedview
     id="namedview1"
     pagecolor="#ffffff"
     bordercolor="#111111"
     borderopacity="1"
     inkscape:showpageshadow="0"
     inkscape:pageopacity="0"
     inkscape:pagecheckerboard="1"
     inkscape:deskcolor="#d1d1d1"
     inkscape:zoom="2"
     inkscape:cx="-34.75"
     inkscape:cy="26.75"
     inkscape:window-width="1600"
     inkscape:window-height="837"
     inkscape:window-x="-8"
     inkscape:window-y="-8"
     inkscape:window-maximized="1"
     inkscape:current-layer="g1" />
  <g
     inkscape:groupmode="layer"
     inkscape:label="Image"
     id="g1"
     transform="translate(-480.24151,-160.82671)">
    <path
       style="opacity:1;fill:#ffffff;fill-opacity:1;stroke-width:1.26495"
       id="path1"
       sodipodi:type="arc"
       sodipodi:cx="536.53198"
       sodipodi:cy="215.536"
       sodipodi:rx="56.290474"
       sodipodi:ry="54.709282"
       sodipodi:start="0"
       sodipodi:end="6.2831287"
       sodipodi:open="true"
       sodipodi:arc-type="arc"
       d="m 592.82246,215.536 a 56.290474,54.709282 0 0 1 -56.28968,54.70928 56.290474,54.709282 0 0 1 -56.29127,-54.70774 56.290474,54.709282 0 0 1 56.28808,-54.71083 56.290474,54.709282 0 0 1 56.29287,54.70619" />
    <path
       style="opacity:1;fill:#3d56b2;fill-opacity:1"
       d="m 581.37999,499.96928 c -2.84297,-5.61161 -6.84983,-13.35293 -8.90413,-17.20293 -12.45471,-23.34153 -20.01755,-38.67645 -19.49297,-39.52524 1.0302,-1.66689 2.93754,-1.05964 4.02998,1.28304 1.12592,2.4145 14.45413,28.10663 25.58878,49.32623 3.7761,7.19622 6.86564,13.56058 6.86564,14.14301 0,0.58244 -0.65661,1.31095 -1.45913,1.6189 -1.05539,0.405 -2.88941,-2.26324 -6.62817,-9.64301 z m -228.37225,5.74233 c -1.75042,-3.25034 -1.77089,-3.64339 -0.268,-5.14629 2.49663,-2.49662 5.03027,0.003 4.16666,4.11037 -0.98299,4.67531 -1.81907,4.89747 -3.89866,1.03592 z m 49.42866,-0.0389 c -1.01016,-3.06082 -0.94616,-3.85792 0.41941,-5.22349 1.48197,-1.48198 1.74397,-1.479 3.26003,0.0371 1.41847,1.41846 1.47008,2.07942 0.36979,4.73574 -1.83903,4.43982 -2.70103,4.53577 -4.04923,0.45068 z m 97.03089,1.88947 c 0,-1.01795 0.60144,-2.73845 1.33654,-3.82332 1.23158,-1.8176 8.82767,-16.2804 25.58277,-48.70911 3.61938,-7.00513 7.11663,-12.74263 7.77167,-12.75 2.75328,-0.031 2.18515,2.53951 -2.48871,11.26018 -2.71971,5.07453 -8.91998,16.87642 -13.77839,26.22642 -4.8584,9.35 -10.23709,19.7 -11.95265,23 -3.10426,5.9713 -6.47123,8.46656 -6.47123,4.79583 z m 55.53961,-7.04583 c -0.94344,-4.8125 -2.56153,-13.025 -3.59574,-18.25 -1.03422,-5.225 -2.60169,-13.58229 -3.48327,-18.57176 -1.45016,-8.20748 -1.81045,-9.06492 -3.78173,-9 -1.65678,0.0546 -2.25482,-0.58855 -2.49584,-2.68393 -0.20671,-1.79706 0.22813,-2.96486 1.25,-3.35698 0.86183,-0.33072 1.56697,-1.6516 1.56697,-2.9353 0,-2.27941 1.61105,-4.17432 2.65847,-3.12689 0.66592,0.66592 3.31155,13.06419 6.75901,31.67486 1.47729,7.975 3.56271,18.79031 4.63426,24.03402 2.36662,11.58127 2.36237,10.96598 0.0757,10.96598 -1.55666,0 -2.16187,-1.47595 -3.58788,-8.75 z m -511.539605,-31.75 v -37.5 h 36.5 36.499995 v 37.5 37.5 h -36.499995 -36.5 z m 68.999995,0 v -33.5 h -32.499995 -32.5 v 33.5 33.5 h 32.5 32.499995 z m -50.999995,2 v -17.5 h 13.5 13.5 v 4 4 h 7 6.999995 v 13.5 13.5 h -20.499995 -20.5 z m 37,4 v -9.5 h -5.41821 c -7.68645,0 -8.58179,-0.53281 -8.58179,-5.10699 v -3.89301 h -10 -10 v 14 14 h 17 17 z m -13.33333,7.83333 c -0.36667,-0.36666 -0.66667,-2.84166 -0.66667,-5.5 v -4.83333 h -9.07332 c -8.10228,0 -9.03746,-0.18729 -8.73815,-1.75 0.29026,-1.51545 1.77441,-1.78804 11.07333,-2.03383 l 10.73814,-0.28383 v 7.53383 c 0,5.61152 -0.34021,7.53383 -1.33333,7.53383 -0.73334,0 -1.63334,-0.3 -2,-0.66667 z m -29.66667,-42.33333 c 0,-3.41091 0.3105,-4.08685 1.75,-3.80963 1.26601,0.24381 1.75,1.29744 1.75,3.80963 0,2.51219 -0.48399,3.56582 -1.75,3.80963 -1.4395,0.27722 -1.75,-0.39872 -1.75,-3.80963 z m 11.42145,2.65588 c -0.95971,-2.50096 -0.0225,-6.15588 1.57855,-6.15588 1.04065,0 1.5,1.0463 1.5,3.41667 0,3.54571 -2.06426,5.38243 -3.07855,2.73921 z m 10.93932,-0.15812 c -0.8545,-2.22679 0.52627,-6.70115 1.92611,-6.2415 0.66722,0.21909 1.35279,2.05105 1.52349,4.07104 0.23848,2.82203 -0.0583,3.6727 -1.28139,3.6727 -0.87546,0 -1.85116,-0.67601 -2.16821,-1.50224 z m 11.82374,-2.16182 c 0.42189,-5.12964 3.31549,-5.43478 3.31549,-0.34964 0,2.57315 -0.47553,3.57789 -1.81549,3.83594 -1.54011,0.2966 -1.76763,-0.23222 -1.5,-3.4863 z m 11.236925,2.31994 c -0.959705,-2.50096 -0.0225,-6.15588 1.57856,-6.15588 1.04065,0 1.5,1.0463 1.5,3.41667 0,3.54571 -2.06426,5.38243 -3.07856,2.73921 z m -51.237855,-3.40588 c 0.18837,-1.63715 0.92343,-2.75 1.81642,-2.75 0.89299,0 1.62805,1.11285 1.81642,2.75 0.25767,2.23933 -0.0796,2.75 -1.81642,2.75 -1.73678,0 -2.07408,-0.51067 -1.81642,-2.75 z m 11.4548,1.25 c -0.78923,-2.05668 0.27965,-4.5 1.96861,-4.5 0.88112,0 1.39301,1.10241 1.39301,3 0,3.18623 -2.3177,4.22042 -3.36162,1.5 z m 11.53673,-1.16225 c 0.41237,-3.60187 3.32489,-3.90972 3.32489,-0.35145 0,1.61173 -0.64192,2.60993 -1.82489,2.83775 -1.47557,0.28417 -1.7627,-0.19175 -1.5,-2.4863 z m 11.21843,1.24541 c -0.82768,-2.1569 0.32393,-4.844 1.85699,-4.33298 0.68721,0.22907 1.24947,1.46649 1.24947,2.74982 0,2.74083 -2.22675,3.87566 -3.10646,1.58316 z m 10.96809,-0.0832 c -0.8143,-2.12201 0.29912,-4.5 2.10699,-4.5 1.03487,0 1.53138,0.97267 1.53138,3 0,3.21831 -2.57208,4.2787 -3.63837,1.5 z m 11.821945,-1.17288 c 0.46088,-3.89313 2.81642,-4.23642 2.81642,-0.41045 0,2.13218 -0.48321,3.08333 -1.56642,3.08333 -1.11013,0 -1.47425,-0.77861 -1.25,-2.67288 z m 12.27214,65.41808 c -0.26483,-0.69014 -0.36321,-17.45264 -0.21862,-37.25 l 0.2629,-35.9952 h 9.26676 9.26676 l 0.0781,25.5 c 0.0429,14.025 0.0354,30.7875 -0.0168,37.25 l -0.0948,11.75 h -9.03138 c -6.32105,0 -9.17589,-0.37657 -9.5129,-1.2548 z m 15.39107,-36.2452 0.0436,-33.5 h -5.94517 c -4.84314,0 -5.94518,0.30396 -5.94518,1.63976 0,0.90186 0.7875,2.25186 1.75,3 1.66241,1.29216 1.65834,1.4313 -0.0814,2.78002 -1.74077,1.3495 -1.71652,1.43612 0.48978,1.75 3.38168,0.48109 3.74452,3.83022 0.41496,3.83022 -3.01311,0 -3.2485,0.75471 -0.82332,2.63976 1.66667,1.29547 1.66667,1.42501 0,2.72048 -2.42518,1.88505 -2.18979,2.63976 0.82332,2.63976 3.28234,0 2.99021,3.34535 -0.33354,3.81955 -2.17803,0.31074 -3.24113,2.18045 -1.2398,2.18045 0.55,0 1,0.675 1,1.5 0,0.825 -0.45,1.5 -1,1.5 -2.00714,0 -0.93504,1.87012 1.25,2.18045 1.2375,0.17575 2.25,0.99455 2.25,1.81955 0,0.825 -1.0125,1.6438 -2.25,1.81955 -2.18504,0.31033 -3.25714,2.18045 -1.25,2.18045 1.44879,0 1.23052,3.74849 -0.25,4.29337 -0.6875,0.25303 -0.0125,0.78931 1.5,1.19174 3.07004,0.81686 3.77367,3.51489 0.91667,3.51489 -2.7493,0 -3.34958,1.13582 -1.40113,2.65112 1.64595,1.28004 1.64595,1.41772 0,2.69776 -1.94845,1.5153 -1.34817,2.65112 1.40113,2.65112 2.85656,0 2.15354,2.70282 -0.90254,3.46984 -2.38846,0.59947 -2.51544,0.81002 -1,1.6581 2.12942,1.19168 2.2927,3.87206 0.23587,3.87206 -0.825,0 -1.5,0.675 -1.5,1.5 0,1.16389 1.3224,1.5 5.90161,1.5 h 5.90161 z m 6.15321,7.16516 c 0,-28.12845 0.15294,-30.80145 2.10276,-36.75 2.81884,-8.59976 4.57161,-11.88438 5.29103,-9.91516 5.9942,16.40756 5.60622,13.19848 5.60622,46.37099 v 30.62901 h -6.5 -6.50001 z m 8.26904,25.6789 c -0.67703,-0.27392 -2.02703,-0.29059 -3,-0.0371 -0.97297,0.25354 -0.41903,0.47766 1.23097,0.49804 1.65,0.0204 2.44606,-0.18706 1.76903,-0.46099 z m 0.73097,-5.34406 c 0,-0.55 -0.9,-1 -2,-1 -1.33333,0 -2,-0.66667 -2,-2 0,-1.33333 0.66667,-2 2,-2 1.93774,0 1.99952,-0.66156 1.98469,-21.25 -0.009,-13.13235 -0.36236,-20.70155 -0.92379,-19.8143 -0.7529,1.18984 -1.17839,1.21168 -2.48468,0.12755 -1.42755,-1.18475 -1.57622,0.96711 -1.57622,22.81431 v 24.12244 h 2.5 c 1.375,0 2.5,-0.45 2.5,-1 z m -1.8919,-56.16188 -0.89266,-2.33812 -0.70186,2.69316 c -0.8549,3.28037 0.3271,5.84292 1.62518,3.52338 0.48674,-0.86977 0.47339,-2.55814 -0.0307,-3.87842 z m 53.8919,34.66188 v -29.5 h 16.39301 c 13.1411,0 16.49975,0.27816 16.9311,1.40223 0.29595,0.77123 0.26909,1.67123 -0.0597,2 -0.32875,0.32878 -7.04774,0.59777 -14.93108,0.59777 H 205.4673 v 25.5 25.5 h 42.45295 c 30.78419,0 43.17365,-0.32837 45.07499,-1.19469 2.68643,-1.22401 5.47206,-5.45195 5.47206,-8.30531 0,-2.85336 -2.78563,-7.0813 -5.47206,-8.30531 -3.83613,-1.74786 -5.81736,-1.4875 -9.9328,1.30531 -2.02618,1.375 -3.89567,2.5 -4.15443,2.5 -0.25876,0 -0.35127,-13.33917 -0.20559,-29.64261 l 0.26488,-29.6426 2.71171,-2.02406 c 3.70668,-2.76672 10.54978,-2.70881 14.52657,0.12291 5.98576,4.26224 6.26188,5.95319 6.26017,38.33749 -0.002,32.7762 -0.2447,34.13536 -6.89633,38.57894 l -3.39789,2.26993 H 246.81942 201.4673 Z m 95.76861,-42.32501 c -1.88656,-3.978 -7.59826,-6.47894 -11.606,-5.08183 l -3.16261,1.10249 v 25.43736 c 0,24.83929 0.0455,25.41302 1.93426,24.40217 2.91905,-1.56223 7.21481,-1.23784 10.56574,0.79786 l 3,1.8225 0.26861,-22.90278 c 0.1983,-16.90729 -0.0635,-23.60304 -1,-25.57777 z m 59.20965,66.29883 c -1.00336,-1.20897 -0.94488,-2.57086 0.29797,-6.9398 l 1.54631,-5.43565 -5.16127,-0.29919 c -4.39489,-0.25475 -5.16128,-0.59616 -5.16128,-2.29918 0,-1.72812 0.76545,-2.04029 5.6307,-2.29634 l 5.6307,-0.29635 2.1193,-6.27415 c 1.16561,-3.45078 2.12783,-6.91743 2.13825,-7.70366 0.0104,-0.78622 1.02903,-4.7069 2.26358,-8.71262 2.04836,-6.64627 2.39995,-7.16954 4.02088,-5.98429 1.69751,1.24125 1.68938,1.58626 -0.18354,7.78312 -2.23699,7.40143 -5.11987,18.6996 -5.11987,20.06506 0,0.50558 2.2813,0.91923 5.06955,0.91923 4.68533,0 5.04533,0.17053 4.75,2.25 -0.28288,1.99178 -0.97655,2.28433 -6.04424,2.54915 -6.30818,0.32964 -5.70085,-0.43295 -8.33069,10.4603 -0.83851,3.47326 -1.87306,4.13416 -3.46635,2.21437 z m 43.02173,-0.56991 c 0,-0.60285 -0.70063,-3.50616 -1.55694,-6.4518 l -1.55695,-5.3557 -5.69305,-0.29821 c -4.92699,-0.25807 -5.69306,-0.56732 -5.69306,-2.2982 0,-1.67394 0.83333,-2.08152 5.11151,-2.5 l 5.11151,-0.5 -2.38138,-8.5 c -1.30975,-4.675 -3.04583,-10.75 -3.85793,-13.5 -1.34743,-4.56272 -1.33021,-5.10842 0.19686,-6.23967 0.92039,-0.68181 1.79443,-1.11867 1.94231,-0.97078 0.14789,0.14789 1.47558,4.75574 2.95042,10.23967 1.47485,5.48393 3.23409,11.99578 3.90944,14.47078 l 1.2279,4.5 5.89468,0.5 c 5.06135,0.42931 5.89468,0.78274 5.89468,2.5 0,1.70116 -0.76599,2.04452 -5.12642,2.29797 l -5.12643,0.29798 1.46541,4.99896 c 0.80597,2.74942 1.21448,5.65284 0.9078,6.45202 -0.64742,1.68716 -3.62036,1.9803 -3.62036,0.35698 z M 209.4673,496.68255 c 0,-1.26678 45.52834,-81.40901 46.25,-81.41255 0.4125,-0.002 0.75,6.69817 0.75,14.88932 0,12.31574 0.25958,14.99262 1.5,15.46862 1.93932,0.74418 1.95372,3.63837 0.0181,3.63837 -1.26008,0 -1.52203,3.55508 -1.75,23.75 l -0.2681,23.75 -23.25,0.26843 c -12.7875,0.14764 -23.25,-0.0109 -23.25,-0.35219 z m 14,-4.41624 c 0,-1.46797 3.98871,-1.22256 4.06339,0.25 0.0349,0.6875 0.47036,0.2375 0.96777,-1 1.12455,-2.79774 3.96884,-2.9769 3.96884,-0.25 0,1.1 0.45,2 1,2 0.55,0 1,-0.45 1,-1 0,-1.46797 3.98871,-1.22256 4.06339,0.25 0.0349,0.6875 0.47036,0.2375 0.96777,-1 1.12455,-2.79774 3.96884,-2.9769 3.96884,-0.25 0,1.1 0.45,2 1,2 0.55,0 1,-0.45 1,-1 0,-0.55 0.9,-1 2,-1 1.1,0 2,0.45 2,1 0,0.55 0.675,1 1.5,1 0.825,0 1.5,-0.675 1.5,-1.5 0,-0.825 -0.45,-1.5 -1,-1.5 -1.44685,0 -1.2313,-3.74 0.25,-4.33772 0.6875,-0.27741 0.2375,-0.53991 -1,-0.58333 -1.50894,-0.053 -2.25,-0.69925 -2.25,-1.96232 0,-1.10376 0.93138,-2.13861 2.25,-2.49997 1.87192,-0.513 1.99794,-0.77952 0.75,-1.58612 -1.24012,-0.80154 -1.28197,-1.32131 -0.24153,-3.00003 1.10596,-1.78442 1.01506,-2.03051 -0.75,-2.03051 -2.97083,0 -2.73549,-3.97449 0.24153,-4.07895 1.2375,-0.0434 1.6875,-0.30592 1,-0.58333 -1.4813,-0.59772 -1.69685,-4.33772 -0.25,-4.33772 0.55,0 1,-0.45 1,-1 0,-0.55 -0.9,-1 -2,-1 -2.96392,0 -2.7203,-3.97473 0.25,-4.07895 1.2375,-0.0434 1.6875,-0.30592 1,-0.58333 -1.4813,-0.59772 -1.69685,-4.33772 -0.25,-4.33772 0.55,0 1,-0.45 1,-1 0,-0.55 -0.9,-1 -2,-1 -2.72574,0 -2.53712,-2.60347 0.25,-3.45067 1.36311,-0.41435 1.75728,-0.88734 1,-1.19996 -0.6875,-0.28382 -1.25,-1.34104 -1.25,-2.34937 0,-1.00833 0.5625,-2.06031 1.25,-2.33772 0.6875,-0.27741 0.2375,-0.53991 -1,-0.58333 -3.12834,-0.10977 -3.17699,-4.07895 -0.05,-4.07895 1.71111,0 1.93333,-0.26667 1,-1.2 -1.5249,-1.5249 -1.55471,-4.5151 -0.05,-5.01667 0.6325,-0.21083 0.94409,-1.00105 0.69243,-1.75605 -0.25167,-0.75499 -3.74753,4.44251 -7.76859,11.55 -4.02106,7.1075 -8.14223,14.37145 -9.15816,16.14211 -1.01592,1.77067 -3.50677,6.27067 -5.53521,10 -2.02845,3.72934 -4.44871,7.90561 -5.37836,9.28061 -0.92965,1.375 -3.31308,5.5375 -5.2965,9.25 l -3.60623,6.75 h 3.95031 c 2.17267,0 3.95031,-0.45 3.95031,-1 z m 6.26124,-11.25 c 1.34821,-2.3375 5.25527,-9.3125 8.68235,-15.5 3.42708,-6.1875 6.41676,-11.25 6.64374,-11.25 0.22697,0 0.41267,6.975 0.41267,15.5 v 15.5 h -9.09502 -9.09502 z m 11.72625,-6.5 -0.0125,-6.75 -3.45721,6 c -1.90146,3.3 -3.47083,6.3375 -3.48748,6.75 -0.0167,0.4125 1.54472,0.75 3.46972,0.75 h 3.49998 z m 19.01251,-7.50822 v -30.25822 l 2.95891,-8.36736 c 1.6274,-4.60204 3.18981,-8.59825 3.47202,-8.88046 1.30581,-1.30581 6.56907,15.45632 6.56907,20.92081 0,3.63862 0.37313,4.84345 1.5,4.84345 0.83333,0 1.5,0.88889 1.5,2 0,1.11111 -0.66667,2 -1.5,2 -1.29167,0 -1.5,3.33333 -1.5,24 v 24 h -6.5 -6.5 z m 8.26903,25.60228 c -0.67703,-0.27392 -2.02703,-0.29059 -3,-0.0371 -0.97297,0.25354 -0.41903,0.47766 1.23097,0.49804 1.65,0.0204 2.44606,-0.18706 1.76903,-0.46099 z m 0.73097,-5.34406 c 0,-0.55 -0.9,-1 -2,-1 -1.33333,0 -2,-0.66667 -2,-2 0,-1.33333 0.66667,-2 2,-2 1.91919,0 2,-0.66667 2,-16.5 v -16.5 h -2.5 -2.5 v 19.5 19.5 h 2.5 c 1.375,0 2.5,-0.45 2.5,-1 z m -0.0153,-44.75 c -0.0113,-2.03861 -0.25033,-2.3786 -0.92379,-1.3143 -0.7529,1.18984 -1.17839,1.21168 -2.48468,0.12755 -1.36682,-1.13434 -1.57623,-0.95973 -1.57623,1.31431 0,2.1306 0.46887,2.62244 2.5,2.62244 2.06432,0 2.49733,-0.47925 2.48469,-2.75 z m -0.9847,-9.19098 c 0,-2.66924 -1.65816,-3.47422 -2.27755,-1.10568 -0.51947,1.98648 -0.0169,3.04666 1.44422,3.04666 0.45833,0 0.83333,-0.87344 0.83333,-1.94098 z m 273.81281,57.69098 c -0.69165,-1.2375 -2.03548,-3.9375 -2.98629,-6 l -1.72875,-3.75 h 6.0185 c 5.78087,0 5.99103,0.0888 5.3228,2.25 -0.9048,2.92625 -4.35112,9.75 -4.92422,9.75 -0.24447,0 -1.01039,-1.0125 -1.70204,-2.25 z M 415.10247,490.5619 c -0.2907,-0.98757 -0.82762,-3.48309 -1.19315,-5.54559 -0.58572,-3.30487 -0.42721,-3.75 1.33539,-3.75 1.49398,0 2.16613,0.88553 2.6566,3.5 0.57446,3.06214 1.02624,3.5 3.61129,3.5 2.81573,0 2.95469,-0.20263 2.95469,-4.30846 0,-4.15964 0.16222,-4.38309 4.69629,-6.46897 l 4.69629,-2.16051 3.33369,2.54273 3.33369,2.54273 1.86543,-2.30371 c 1.83487,-2.26596 1.82619,-2.35033 -0.52998,-5.15048 -2.83143,-3.36496 -2.82354,-3.23162 -0.45451,-7.68178 1.46909,-2.75964 2.76608,-3.7089 6.20808,-4.54367 3.32078,-0.80538 4.42682,-1.57871 4.67116,-3.26603 0.32222,-2.22522 -0.13644,-2.55956 -4.94776,-3.60666 -2.05789,-0.44787 -2.97587,-1.6043 -4.23374,-5.33353 l -1.60611,-4.76166 3.0621,-2.80592 c 2.95829,-2.7108 3.00674,-2.89042 1.42929,-5.29791 l -1.63281,-2.49199 -3.37709,2.08715 -3.37708,2.08716 -4.10615,-2.78925 c -3.8832,-2.6378 -4.08394,-3.01712 -3.69727,-6.98632 0.37411,-3.84022 0.17457,-4.27875 -2.34688,-5.15773 -2.58826,-0.90228 -2.84904,-0.72316 -4.29075,2.94707 -1.3774,3.50654 -1.8942,3.90774 -5.03366,3.90774 -1.92426,0 -4.19967,0.26901 -5.05647,0.59779 -1.06541,0.40883 -2.21827,-0.5216 -3.64726,-2.94356 -1.75699,-2.97787 -2.43703,-3.40991 -4.27397,-2.71535 -2.24636,0.84937 -2.53127,2.49636 -1.24532,7.199 0.61616,2.2533 0.19262,3.04115 -2.90507,5.40388 -2.71566,2.07133 -3.91285,2.47953 -4.76702,1.62536 -0.85417,-0.85417 -0.55788,-1.76094 1.17978,-3.6106 2.29331,-2.44111 2.42458,-4.87393 0.52753,-9.77685 -0.5296,-1.36875 0.51404,-2.24204 5.10666,-4.27311 6.19853,-2.74129 5.97416,-2.80983 8.98118,2.74344 1.01476,1.87402 2.28858,2.75 3.99895,2.75 2.02221,0 2.88463,-0.87431 4.43878,-4.5 1.06091,-2.475 2.31324,-4.5 2.78296,-4.5 0.46972,0 3.22398,0.7038 6.12058,1.56399 l 5.26653,1.564 -0.63463,4.686 c -0.55348,4.08674 -0.36156,4.8538 1.50075,5.99806 1.82838,1.12341 2.72628,1.01972 6.24504,-0.72123 2.2603,-1.11831 4.16866,-1.93373 4.2408,-1.81205 0.0721,0.12168 1.64058,2.36584 3.48542,4.98702 l 3.35427,4.76579 -3.23634,3.33906 c -2.57844,2.66028 -3.10377,3.86727 -2.58419,5.93743 0.54124,2.1565 1.40097,2.71067 5.05548,3.2587 4.82906,0.72416 4.86269,0.80267 3.76741,8.79366 l -0.63593,4.63957 h -4.33214 c -3.70319,0 -4.53998,0.39668 -5.76372,2.73228 -1.34584,2.56862 -1.25225,2.93653 1.56252,6.14238 l 2.99411,3.4101 -4.52743,4.52744 -4.52743,4.52743 -3.65701,-2.78934 c -3.07926,-2.34866 -4.02878,-2.61993 -6.0103,-1.71709 -1.91684,0.87337 -2.41019,1.96198 -2.66003,5.86952 l -0.30672,4.79728 -6.16814,0.29559 c -5.22326,0.25031 -6.24911,0.0205 -6.69668,-1.5 z m -37.92633,-1.92007 c -1.33862,-1.33863 -0.74688,-9.09907 0.79115,-10.37552 2.63559,-2.18735 4.64494,0.57665 4.29816,5.91241 -0.24287,3.7368 -0.6767,4.64178 -2.33931,4.87977 -1.12263,0.1607 -2.36013,-0.0268 -2.75,-0.41666 z m 164.47779,-11.62552 c 0.20084,-2.08295 0.852,-3.25 1.81336,-3.25 0.96136,0 1.61252,1.16705 1.81336,3.25 0.26477,2.74611 -0.0164,3.25 -1.81336,3.25 -1.79698,0 -2.07813,-0.50389 -1.81336,-3.25 z m -128.80155,-2.64358 c -15.79083,-4.04827 -19.4288,-26.81756 -5.80832,-36.353 14.38511,-10.07073 34.55971,2.51382 31.94819,19.92871 -0.75035,5.0037 -5.53412,11.83507 -10.1931,14.55606 -3.62064,2.11457 -11.42122,3.02844 -15.94677,1.86823 z m 15.20585,-5.98463 c 1.59998,-1.25048 3.91925,-3.92694 5.15394,-5.9477 6.15297,-10.07031 -1.269,-23.09458 -13.65394,-23.96029 -6.44601,-0.45057 -10.87008,1.85083 -14.81714,7.70788 -4.86678,7.22181 -2.30564,17.41871 5.75,22.89302 4.56373,3.10135 13.14552,2.76285 17.56714,-0.69291 z m 113.7931,2.43662 c -0.90698,-2.36356 0.019,-5.01235 1.87744,-5.37025 1.38947,-0.26759 1.73852,0.38262 1.73852,3.23852 0,2.54217 -0.44191,3.57332 -1.53138,3.57332 -0.84227,0 -1.78032,-0.64871 -2.08458,-1.44159 z m 0.30346,-7.20424 c -0.37812,-0.37813 -0.6875,-1.9625 -0.6875,-3.52084 0,-2.19566 0.46438,-2.83333 2.06336,-2.83333 1.71679,0 2.01072,0.53294 1.75,3.17299 -0.30577,3.09613 -1.7456,4.56144 -3.12586,3.18118 z M 373.78361,452.32297 c -10.051,-4.5633 -10.14078,-19.19203 -0.1463,-23.83539 3.46512,-1.60986 3.72505,-2.04474 4.0174,-6.72123 0.22749,-3.63886 0.72092,-5 1.81258,-5 1.10447,0 1.5797,1.38434 1.80226,5.25 0.2138,3.71362 0.71575,5.25 1.7152,5.25 2.54555,0 8.40964,6.07645 9.42985,9.77134 1.8275,6.61865 -1.4922,13.02916 -8.12061,15.68132 -4.85603,1.943 -5.40396,1.92235 -10.51038,-0.39604 z m 11.98283,-4.8185 c 3.00601,-2.70662 3.91048,-6.07292 2.65434,-9.87906 -1.41772,-4.29572 -4.40982,-6.35906 -9.22145,-6.35906 -10.17356,0 -12.34634,14.57847 -2.73204,18.33088 2.3368,0.91204 7.16999,-0.17566 9.29915,-2.09276 z m 140.70085,-16.23812 v -10 h 13.69528 c 13.24514,0 13.78104,-0.0822 16.30426,-2.49956 l 2.60898,-2.49956 3.20998,3.31186 3.20999,3.31187 -2.51425,2.36201 c -2.20939,2.07562 -2.51424,3.18962 -2.51424,9.18769 v 6.82569 h -17 -17 z m 31,0.059 c 0,-3.26754 0.45,-6.2191 1,-6.55902 0.55,-0.33992 1,-1.34492 1,-2.23333 0,-1.30857 -0.45663,-1.18631 -2.40474,0.64384 -1.63962,1.54034 -3.46912,2.19991 -5.75,2.073 -1.83989,-0.10238 -7.28276,-0.14055 -12.09526,-0.0848 l -8.75,0.10131 v 6 6 h 13.5 13.5 z m -22.45063,2.15702 c -0.30215,-0.30214 -0.54937,-1.59935 -0.54937,-2.88269 0,-2.2716 0.2381,-2.33333 9,-2.33333 h 9 v 3.02665 3.02666 l -8.45063,-0.14395 c -4.64784,-0.0792 -8.69784,-0.39117 -9,-0.69332 z m -16.83679,-8.8368 c -0.39192,-0.39189 -0.71258,-2.66255 -0.71258,-5.04589 v -4.33333 h 12.56955 c 12.38016,0 12.56474,0.0331 12.25,2.19973 -0.30852,2.12383 -0.67326,2.1901 -10.56955,1.92044 -6.84278,-0.18646 -10.25,0.0796 -10.25,0.80026 0,0.59376 0.708,1.07957 1.57332,1.07957 2.65139,0 1.17139,3.46936 -1.61929,3.79591 -1.39088,0.16275 -2.84954,-0.0247 -3.24145,-0.41667 z m -311.32445,-35.3337 c -1.16154,-0.48339 -3.07404,-2.10206 -4.25,-3.59706 -2.10481,-2.67583 -2.13812,-3.35384 -2.13812,-43.51822 0,-22.44002 0.40896,-41.87569 0.9088,-43.19038 0.49985,-1.31468 2.18735,-3.25648 3.75,-4.3151 2.54891,-1.72675 5.09602,-1.95785 24.7594,-2.24638 18.56118,-0.27236 22.58492,-0.067 26.27129,1.34084 7.55555,2.88549 7.41225,1.89605 7.09232,48.97078 l -0.28181,41.46628 -2.7709,2.77186 -2.77089,2.77186 -24.22911,0.2122 c -13.326,0.11671 -25.17945,-0.18329 -26.34098,-0.66668 z m 50.61188,-5.04552 c 1.93443,-1.93443 2,-3.33333 2,-42.67126 0,-36.44171 -0.17211,-40.86144 -1.65499,-42.5 -1.51581,-1.67495 -3.67467,-1.82874 -25.67126,-1.82874 -20.94407,0 -24.2502,0.21171 -25.84501,1.65499 -1.7154,1.55242 -1.82874,4.21384 -1.82874,42.94329 v 41.28831 l 2.22251,1.55671 c 1.85701,1.3007 6.05051,1.5567 25.5,1.5567 21.94416,0 23.39205,-0.11456 25.27749,-2 z m -29.28574,0.38093 c -2.0359,-2.0359 -0.50065,-3.38093 3.85906,-3.38093 3.81522,0 4.51835,0.29009 4.24169,1.75 -0.2272,1.19887 -1.44255,1.84372 -3.85907,2.04759 -1.94008,0.16368 -3.84884,-0.0238 -4.24168,-0.41666 z m -18.4788,-5.41747 c -1.2455,-0.50038 -2.72179,-2.11241 -3.28064,-3.5823 -0.63418,-1.668 -0.91061,-14.79471 -0.73546,-34.92321 0.26183,-30.08937 0.4083,-32.39165 2.18563,-34.35431 1.82721,-2.01775 2.81096,-2.10364 24.09501,-2.10364 20.71405,0 22.30715,0.12943 23.95096,1.94581 1.60407,1.77247 1.76458,4.86817 1.8018,34.75 0.0225,18.04231 -0.25885,33.7484 -0.62517,34.90243 -0.36632,1.15404 -1.80356,2.61654 -3.19386,3.25 -3.05215,1.39065 -40.77874,1.489 -44.19827,0.11522 z m 43.56454,-4.16346 c 1.49113,-1.49113 1.69982,-63.4605 0.22159,-65.8 -0.79235,-1.25401 -4.32155,-1.5 -21.52056,-1.5 -17.19855,0 -20.7284,0.24602 -21.52159,1.5 -1.47921,2.33852 -1.27149,64.30795 0.22056,65.8 1.69611,1.69611 40.90389,1.69611 42.6,0 z m -38.40646,-11.21684 c -0.33414,-0.87074 -1.23437,-1.58316 -2.00053,-1.58316 -0.76615,0 -1.39301,-0.9 -1.39301,-2 0,-1.11111 0.66667,-2 1.5,-2 1.25333,0 1.5,-2.05556 1.5,-12.5 0,-11.83333 0.10667,-12.5 2,-12.5 1.61905,0 2,0.66667 2,3.5 v 3.5 h 13.5 13.5 v -3.5 c 0,-2.83333 0.38095,-3.5 2,-3.5 1.89333,0 2,0.66667 2,12.5 0,10.44444 0.24667,12.5 1.5,12.5 2.27222,0 1.76996,2.21098 -1.12684,4.96041 -2.37737,2.25643 -2.69402,2.32127 -3.8195,0.78209 -1.01328,-1.38574 -3.3912,-1.7275 -13.64044,-1.96041 -10.24193,-0.23275 -12.41322,-0.54447 -12.41322,-1.78209 0,-1.0498 1.27555,-1.59229 4.25,-1.8075 3.94685,-0.28556 4.25,-0.51328 4.25,-3.1925 0,-2.6782 -0.30403,-2.90705 -4.24137,-3.1925 -3.09392,-0.22431 -4.33118,-0.78094 -4.57333,-2.0575 -0.27599,-1.455 0.42094,-1.75 4.13439,-1.75 3.04758,0 4.64918,-0.47648 5.04194,-1.5 1.36041,-3.54518 2.63837,-1.12331 2.63837,5 v 6.5 h 7 7 v -7 -7 h -13.46502 -13.46501 l -0.28499,10.16879 c -0.19708,7.03227 -0.67037,10.29659 -1.53445,10.58315 -0.68721,0.22791 -1.52286,-0.29805 -1.85699,-1.16878 z m -3.39354,-33.86092 c 0,-1.64979 3.58592,-4.72224 5.51143,-4.72224 0.81871,0 1.48857,0.45 1.48857,1 0,0.61728 5.16667,1 13.5,1 8.33333,0 13.5,-0.38272 13.5,-1 0,-1.57243 2.77838,-1.17018 4.98857,0.72224 4.58499,3.9258 3.0638,4.27776 -18.48857,4.27776 -15.97086,0 -20.5,-0.2823 -20.5,-1.27776 z m 12.10428,-27.63663 c -0.76764,-0.48607 -1.11926,-1.60418 -0.78138,-2.48469 0.49639,-1.29358 2.24081,-1.60092 9.0867,-1.60092 8.62614,0 10.76109,0.88448 8.55405,3.5438 -1.36647,1.6465 -14.45068,2.06699 -16.85937,0.54181 z m 308.07466,84.7344 -4.32104,-0.96581 0.27805,-4.5215 c 0.21536,-3.50207 -0.12723,-4.74831 -1.51949,-5.52746 -1.4085,-0.78823 -2.38496,-0.44316 -4.51172,1.59441 -1.4928,1.43019 -3.05386,2.60035 -3.46901,2.60035 -0.41515,0 -2.72208,-1.64442 -5.1265,-3.65427 l -4.37168,-3.65427 2.3814,-3.50455 c 1.87485,-2.75909 2.15968,-3.91887 1.33901,-5.45229 -1.01737,-1.90099 -3.35878,-1.9947 -7.85797,-0.31452 -1.08023,0.4034 -2.16884,-0.98667 -3.89005,-4.96732 -2.32992,-5.3884 -2.3425,-5.56361 -0.5,-6.96342 1.03953,-0.78977 2.70371,-1.7116 3.69819,-2.0485 1.25433,-0.42493 1.71376,-1.41765 1.5,-3.24113 -0.24333,-2.07574 -1.00236,-2.76944 -3.60889,-3.29824 -1.81541,-0.36831 -3.55733,-0.92623 -3.87093,-1.23984 -0.31361,-0.3136 -0.25839,-3.06577 0.1227,-6.11592 l 0.69289,-5.54573 h 4.36066 c 6.01461,0 7.00272,-2.84966 2.57288,-7.42009 l -3.12086,-3.21991 3.16407,-4.43 c 1.74024,-2.4365 3.2814,-4.57389 3.4248,-4.74976 0.1434,-0.17587 2.05096,0.59354 4.23902,1.70981 3.74482,1.91047 4.06876,1.92923 5.51993,0.31976 1.33522,-1.48088 1.35585,-2.04454 0.15405,-4.20981 -2.67183,-4.8138 -2.28604,-5.29256 8.68121,-10.77344 0.35181,-0.17582 1.64116,1.30078 2.86521,3.28134 3.10901,5.03047 6.29776,4.57102 6.99512,-1.0079 l 0.5,-4 5.90724,-0.3046 c 6.59482,-0.34004 7.55298,0.36233 7.57745,5.5546 0.013,2.7601 0.37727,3.25 2.41653,3.25 1.68764,0 3.01949,-1.04788 4.48169,-3.52612 l 2.08047,-3.52613 5.26831,2.64643 c 2.89757,1.45553 5.38561,2.74709 5.52899,2.87013 0.14337,0.12304 -0.37923,2.03738 -1.16133,4.25409 -1.26377,3.58193 -1.24462,4.20776 0.17217,5.62455 1.45889,1.45889 1.87411,1.42115 4.89309,-0.44468 3.86928,-2.39135 4.35545,-2.18291 8.30797,3.56188 l 2.99845,4.3581 -3.30822,2.90466 c -2.8228,2.47845 -3.16093,3.23474 -2.30441,5.15426 0.84143,1.88572 1.66199,2.201 5.0727,1.94906 l 4.0689,-0.30055 0.92442,5.82035 c 1.00736,6.34257 0.31212,7.60827 -4.19586,7.63866 -1.44453,0.01 -2.68682,0.92697 -3.41244,2.51954 -0.62755,1.37732 -0.9554,2.62817 -0.72856,2.77965 0.22684,0.15149 2.07858,1.03212 4.11497,1.95696 l 3.70253,1.68153 -1.59425,4.78881 c -2.27883,6.84515 -2.75944,7.27084 -6.80661,6.02873 -2.58894,-0.79457 -3.80014,-0.73919 -4.96432,0.22699 -2.04211,1.69481 -1.94891,2.56084 0.65459,6.08227 l 2.19448,2.96819 -3.89742,3.99132 c -2.14359,2.19522 -4.34398,3.99132 -4.88976,3.99132 -0.54578,0 -2.21222,-1.16873 -3.7032,-2.59718 -1.96284,-1.88052 -3.30211,-2.40952 -4.85356,-1.91711 -1.90769,0.60548 -2.07033,1.16261 -1.48292,5.07975 0.62362,4.15861 0.50538,4.45839 -2.1579,5.47097 -1.54971,0.5892 -4.36047,1.15954 -6.24613,1.26742 -3.08961,0.17676 -3.54695,-0.14977 -4.62735,-3.30385 -1.80514,-5.26983 -5.02667,-5.30019 -7.12054,-0.0671 -1.74463,4.36025 -2.11793,4.47701 -9.23122,2.8871 z m 6.40552,-7.14178 c 1.00655,-2.94987 1.45165,-3.19981 6.19478,-3.47857 l 5.1103,-0.30035 1.21351,4.05035 c 0.66743,2.22769 1.33799,4.05034 1.49013,4.05034 0.15213,0 1.4376,-0.44141 2.85658,-0.9809 2.33279,-0.88693 2.52078,-1.35108 1.96215,-4.84456 -0.60192,-3.76421 -0.50655,-3.91871 3.70482,-6.00233 l 4.32264,-2.13868 3.03031,2.90739 3.03031,2.90739 1.78823,-2.41294 c 1.73352,-2.33912 1.72116,-2.50366 -0.40392,-5.37797 l -2.19214,-2.96503 2.79385,-3.66293 c 2.64613,-3.46925 3.02439,-3.63133 7.15392,-3.06531 2.39803,0.32868 4.36006,0.19302 4.36006,-0.30147 0,-0.4945 0.26806,-1.59764 0.59569,-2.45142 0.41859,-1.09085 -0.49714,-2.07347 -3.0803,-3.30529 -3.27564,-1.56205 -3.61279,-2.06896 -3.09569,-4.65445 0.31917,-1.59583 0.5803,-3.72791 0.5803,-4.73796 0,-1.29635 1.17641,-2.15323 4,-2.91354 4.07021,-1.09599 4.46873,-1.61493 3.39301,-4.41821 -0.40446,-1.05401 -1.8606,-1.58179 -4.36414,-1.58179 -3.54113,0 -3.85768,-0.26322 -5.50547,-4.5779 l -1.74832,-4.5779 2.61246,-2.72682 c 2.97306,-3.1032 3.2193,-4.36886 1.17938,-6.06184 -1.1243,-0.93309 -1.97559,-0.83388 -3.95103,0.46048 -2.97871,1.95173 -5.43649,1.3683 -8.65123,-2.05363 -2.17074,-2.31066 -2.25278,-2.77669 -1.06636,-6.05768 0.70691,-1.95494 1.13149,-3.6848 0.9435,-3.84412 -0.18799,-0.15933 -1.31342,-0.79459 -2.50095,-1.4117 -1.91009,-0.99259 -2.38781,-0.73448 -4.14135,2.23755 l -1.98219,3.35956 -4.85865,-1.22821 c -4.75065,-1.20091 -4.8655,-1.32036 -5.16616,-5.373 -0.2857,-3.85099 -0.51607,-4.14479 -3.25,-4.14479 -2.64994,0 -2.94402,0.32314 -2.95781,3.25 -0.0216,4.5871 -0.87173,5.46209 -6.06223,6.23964 -4.20662,0.63016 -4.71818,0.47108 -6.3132,-1.96323 -1.17041,-1.78628 -2.44782,-2.54758 -3.92246,-2.33768 -2.25891,0.32153 -2.47233,1.58743 -1.15991,6.88008 0.53149,2.14336 0.0258,3.035 -3.05331,5.38354 -3.57686,2.72821 -3.79154,2.76645 -6.9839,1.24412 -3.10769,-1.48195 -3.39695,-1.45642 -5.12433,0.45231 -1.79048,1.97846 -1.75831,2.08202 1.46321,4.7113 l 3.29392,2.68837 -2.0257,4.72577 c -1.94483,4.53709 -2.18948,4.72578 -6.12766,4.72578 -3.87289,0 -4.08429,0.15159 -3.78554,2.71443 0.25306,2.17092 0.97733,2.84852 3.61717,3.38408 4.07479,0.82669 3.81008,0.48439 4.60238,5.95137 0.64791,4.47061 0.59677,4.57974 -2.93486,6.26386 -3.0093,1.43503 -3.48241,2.0779 -2.90703,3.95012 0.94144,3.06335 0.79092,3.00902 5.06617,1.82857 2.97837,-0.82237 3.977,-0.76379 4.55393,0.26712 0.40643,0.72626 1.62011,2.40496 2.69705,3.73046 1.94705,2.3964 1.94637,2.43088 -0.11938,6.11567 -1.71774,3.06401 -1.85554,3.97308 -0.7958,5.25 1.69883,2.04696 2.09279,1.97497 5.25917,-0.96107 l 2.70195,-2.50538 4.61581,2.24254 c 4.60831,2.23888 4.6148,2.24935 3.98798,6.4293 -0.57285,3.82003 -0.4264,4.21881 1.67202,4.55266 2.89578,0.4607 3.06819,0.32167 4.38433,-3.5355 z m -7.17558,-9.10912 c -5.88178,-2.6753 -12.26491,-8.90651 -15.2638,-14.90051 -2.68221,-5.36104 -3.17576,-9.98776 -1.11099,-10.4148 1.06519,-0.22031 1.8844,0.99149 2.6801,3.96445 2.30479,8.61134 10.39305,16.74828 18.91327,19.02709 3.1023,0.82974 4.37253,1.69022 4.37253,2.96206 0,2.45388 -3.27151,2.23616 -9.59111,-0.63829 z m 17.59111,0.6012 c 0,-1.58451 0.83222,-2.23581 3.49522,-2.73539 8.11829,-1.523 17.07048,-10.39463 19.46597,-19.2908 0.85152,-3.1623 1.58907,-4.18196 2.84422,-3.93212 2.06476,0.41098 1.80262,3.50283 -0.80236,9.46367 -3.68886,8.44104 -13.23673,16.22107 -22.07665,17.98905 -2.48473,0.49695 -2.9264,0.2714 -2.9264,-1.49441 z m -13.0272,-16.42031 c -4.64834,-3.14742 -6.81355,-7.33748 -6.89971,-13.35212 -0.12903,-9.00697 6.6985,-15.79894 15.84857,-15.76602 6.14814,0.0221 10.47857,2.48857 13.53945,7.71157 3.26756,5.57566 3.36836,8.04974 0.28889,7.09043 -7.05954,-2.19919 -8.32358,-3.45386 -5.22603,-5.18734 1.28875,-0.72121 1.1378,-1.21564 -0.97794,-3.20327 -1.78622,-1.67808 -3.75195,-2.37801 -6.87184,-2.44684 -8.0533,-0.17767 -12.67419,4.31377 -12.67419,12.31913 0,7.44768 8.22089,13.70802 15.16306,11.54694 1.28532,-0.40012 3.92991,-2.44034 5.87687,-4.53383 2.49255,-2.68013 3.95196,-3.5517 4.93249,-2.9457 1.13901,0.70395 0.95799,1.49485 -0.99422,4.34392 -3.3659,4.9122 -6.85829,6.67313 -13.23461,6.67313 -3.99835,0 -6.33195,-0.59865 -8.77079,-2.25 z m 37.14906,-18.02814 c -0.61703,-0.61703 -1.12186,-1.95348 -1.12186,-2.9699 0,-1.01642 -1.57626,-4.31213 -3.50281,-7.3238 -3.78388,-5.91516 -10.59604,-10.98088 -16.17375,-12.02726 -2.37142,-0.44488 -3.32344,-1.16451 -3.32344,-2.51219 0,-2.58557 2.9406,-2.43191 9.32227,0.48713 8.02153,3.66913 15.0668,12.06054 17.46781,20.80539 1.07709,3.92293 -0.36815,5.8407 -2.66822,3.54063 z m -60.12186,-1.52552 c 0,-3.14718 5.21257,-12.40891 9.26402,-16.46036 6.41514,-6.41514 19.40835,-11.38889 18.5593,-7.10442 -0.19004,0.95898 -2.38447,2.28803 -5.32332,3.22405 -6.87564,2.18989 -14.67212,9.87912 -17.13002,16.89439 -1.28093,3.65598 -2.3754,5.25 -3.6047,5.25 -1.03456,0 -1.76528,-0.74661 -1.76528,-1.80366 z m -137.33333,50.13699 c -0.36667,-0.36666 -0.66667,-1.66852 -0.66667,-2.89301 0,-3.20005 -2.53079,-3.76554 -3.85411,-0.86118 -1.3053,2.86483 -2.84278,3.00991 -7.64232,0.72117 -2.53536,-1.20903 -3.37912,-2.14723 -2.92284,-3.25 1.77699,-4.29481 0.84948,-5.07134 -4.21414,-3.52819 -1.66301,0.50681 -2.72518,-0.1257 -4.81733,-2.86865 l -2.68392,-3.51881 2.06733,-2.06733 c 2.95774,-2.95774 2.5669,-4.06733 -1.43267,-4.06733 -1.925,0 -3.51074,-0.3375 -3.52386,-0.75 -0.0131,-0.4125 -0.42408,-2.47452 -0.91324,-4.58226 -0.84822,-3.65487 -0.75453,-3.87928 2.02386,-4.84783 3.57382,-1.24584 3.77081,-3.54337 0.41324,-4.81991 -2.84333,-1.08103 -2.86133,-1.15875 -1.44742,-6.25 0.93349,-3.36134 1.38203,-3.75 4.32776,-3.75 4.45069,0 5.049,-0.91409 2.4259,-3.70624 l -2.21204,-2.35462 3.66177,-3.66178 c 3.47847,-3.47846 3.75538,-3.57706 5.53164,-1.96957 2.90134,2.62568 4.21239,2.05532 4.21239,-1.83254 0,-3.59837 0.36433,-3.92136 6.61811,-5.86725 1.70418,-0.53026 2.36301,-0.0678 3.37132,2.36647 1.58548,3.82771 2.8323,3.83536 4.16041,0.0255 1.09224,-3.1332 2.21235,-3.47756 7.72516,-2.375 2.75926,0.55185 3.125,1.02 3.125,4 0,3.88326 1.41578,4.31805 3.93403,1.20815 l 1.75461,-2.16686 3.69185,2.91686 c 2.76461,2.18425 3.54112,3.41917 3.09167,4.91685 -1.48635,4.95286 -0.68694,5.84203 3.64552,4.05487 1.20682,-0.49782 2.16024,0.42641 3.75385,3.63892 l 2.13616,4.30621 -2.50384,1.83341 c -3.28443,2.40497 -3.18034,4.45591 0.24615,4.85017 2.50658,0.28841 2.77654,0.72619 3.04986,4.94577 0.29712,4.58693 0.26733,4.63546 -3.25,5.29532 -4.16168,0.78073 -4.4413,1.81165 -1.16048,4.27865 l 2.38937,1.79668 -1.87508,3.68215 c -2.21647,4.35252 -3.66904,5.45248 -5.1908,3.93072 -0.61208,-0.61205 -1.97165,-1.11284 -3.02128,-1.11284 -1.88247,0 -1.93132,1.53552 -0.19584,6.1571 0.3064,0.81595 -1.10304,2.25922 -3.5919,3.67811 l -4.09619,2.3352 -1.46053,-2.0852 c -2.01181,-2.87227 -4.34713,-2.66834 -4.34713,0.37961 0,1.41343 -0.82507,2.90638 -1.93426,3.5 -2.1693,1.16097 -7.37807,1.38951 -8.39907,0.36851 z m 6.33333,-6.25578 c 0,-2.46512 0.55964,-3.10714 3.57622,-4.10271 3.22502,-1.06435 3.81169,-0.95905 5.9739,1.07225 2.06492,1.93989 2.48231,2.03196 3.00746,0.66345 0.33538,-0.87399 0.1505,-2.4039 -0.41084,-3.3998 -0.80403,-1.42647 -0.47805,-2.37942 1.53608,-4.49046 2.12778,-2.23016 2.97009,-2.52254 5.02085,-1.74284 3.62451,1.37803 4.79103,0.078 2.30475,-2.56848 -1.71385,-1.8243 -2.00858,-2.99117 -1.47455,-5.83779 0.53659,-2.8603 1.17169,-3.61788 3.23966,-3.86446 3.68721,-0.43966 3.83357,-2.39942 0.27191,-3.64102 -2.00421,-0.69867 -3.04544,-1.73527 -3.04544,-3.03188 0,-1.08363 -0.26913,-2.67158 -0.59807,-3.52878 -0.40075,-1.04434 0.26763,-1.95298 2.0259,-2.7541 3.38703,-1.54324 2.72774,-3.43394 -1.06873,-3.06484 -2.0964,0.20381 -3.62518,-0.44042 -5.31591,-2.24011 -2.06899,-2.20234 -2.22225,-2.85757 -1.19551,-5.11102 1.66157,-3.64675 0.40243,-5.01856 -2.28715,-2.49182 -2.10222,1.97493 -2.43474,2.00736 -5.86896,0.57246 -3.33687,-1.39424 -3.58879,-1.77949 -3.02076,-4.61964 0.53183,-2.65916 0.35258,-3.04711 -1.26407,-2.73578 -1.03607,0.19954 -2.0535,1.25762 -2.26094,2.3513 -0.814,4.29162 -7.49993,5.00016 -9.32775,0.98852 -1.61145,-3.53675 -3.81805,-3.19593 -3.81805,0.58971 0,1.98132 -0.80716,3.76306 -2.25,4.96673 -2.7994,2.33535 -3.61889,2.37218 -5.94489,0.26719 -1.39854,-1.26567 -2.13479,-1.39395 -3.00511,-0.52363 -0.87032,0.87032 -0.69294,1.66082 0.72402,3.22654 1.83571,2.02844 1.83565,2.15012 -0.003,5.56362 -1.5818,2.93721 -2.35,3.44391 -4.85127,3.19984 -3.69812,-0.36087 -4.67553,1.74084 -1.21366,2.60971 2.23959,0.56211 2.54355,1.16092 2.54355,5.01093 0,3.83006 -0.31017,4.45039 -2.5,5 -3.59447,0.90216 -3.23936,3.58936 0.47432,3.58936 2.31513,0 3.32984,0.6875 4.57845,3.10204 1.52515,2.94932 1.49809,3.21492 -0.54953,5.39451 -2.60724,2.77528 -1.01658,4.38373 2.48302,2.5108 1.97297,-1.0559 2.73626,-0.90271 5.43177,1.09017 1.72493,1.27529 2.89902,2.90006 2.6091,3.61059 -0.28992,0.71054 -0.77799,1.90882 -1.0846,2.66285 -0.30661,0.75402 0.15708,1.64515 1.03042,1.98029 1.07074,0.41088 1.96168,-0.21105 2.73559,-1.9096 0.69556,-1.52658 1.70068,-2.30673 2.55137,-1.98029 0.77201,0.29625 2.50311,0.53864 3.84688,0.53864 1.91468,0 2.57301,0.64898 3.04321,3 0.78427,3.92134 3.35,3.98074 3.35,0.0775 z m -10.5,-12.56655 c -4.41752,-1.95233 -7.21744,-5.41869 -8.62211,-10.67438 -1.63378,-6.11293 -0.15025,-11.21106 4.60297,-15.81806 3.11276,-3.01701 4.2765,-3.47045 9.77625,-3.80922 5.28323,-0.32544 6.7726,-0.0247 9.68882,1.95645 4.97677,3.38098 7.41208,8.09447 7.27569,14.08196 -0.26245,11.52209 -12.1042,18.95562 -22.72162,14.26325 z m 15.69657,-6.40497 c 5.01661,-5.61456 4.92982,-10.61462 -0.28741,-16.55671 -3.97235,-4.52425 -8.49939,-5.4663 -13.6404,-2.83847 -7.20878,3.68476 -9.30452,13.39337 -4.10073,18.9968 3.232,3.48022 5.61236,4.33558 10.79953,3.88073 3.4498,-0.3025 5.09665,-1.09582 7.22901,-3.48235 z M 45.467295,343.26635 v -39 h 25.5 25.5 v 39 39 h -25.5 -25.5 z m 47,0 v -35 h -21.5 -21.5 v 35 35 h 21.5 21.5 z m -40.77307,15.25 0.27307,-17.75 18.35049,-0.28905 c 12.85106,-0.20243 18.7699,0.059 19.75,0.87244 1.09819,0.91142 1.39951,4.79531 1.39951,18.03905 v 16.87756 h -20.02307 -20.02308 z m 5.77307,10.75 c 0,-1.65 -0.45,-3 -1,-3 -0.55,0 -1,1.35 -1,3 0,1.65 0.45,3 1,3 0.55,0 1,-1.35 1,-3 z m 8,-0.0733 c 0,-2.33911 -0.40109,-2.99609 -1.67889,-2.75 -0.92338,0.17782 -1.59838,0.66082 -1.5,1.07332 0.0984,0.41248 0.17889,1.64998 0.17889,2.74998 0,1.11111 0.66667,2 1.5,2 1.00795,0 1.5,-1.00815 1.5,-3.07332 z m 6,0.0733 c 0,-2 -0.5,-3 -1.5,-3 -1,0 -1.5,1 -1.5,3 0,2 0.5,3 1.5,3 1,0 1.5,-1 1.5,-3 z m 7,0 c 0,-2 -0.5,-3 -1.5,-3 -1,0 -1.5,1 -1.5,3 0,2 0.5,3 1.5,3 1,0 1.5,-1 1.5,-3 z m 9,-3.5 c 0,-6.26667 -0.0897,-6.5 -2.5,-6.5 -2.41025,0 -2.5,0.23333 -2.5,6.5 0,6.26667 0.0897,6.5 2.5,6.5 2.41026,0 2.5,-0.23333 2.5,-6.5 z m -29.65066,-5.03203 c -0.30982,-0.80738 -0.96517,-1.46797 -1.45633,-1.46797 -1.02609,0 -1.20654,2.35313 -0.25353,3.30615 1.06676,1.06675 2.31121,-0.27108 1.70986,-1.83818 z m 7.47399,0.19916 c 0.19137,-0.98676 -0.31877,-1.66713 -1.25,-1.66713 -0.92764,0 -1.57333,0.855 -1.57333,2.08333 0,2.43705 2.33677,2.09257 2.82333,-0.4162 z m 6.17667,0.33287 c 0,-1.11111 -0.66667,-2 -1.5,-2 -1.52241,0 -2.05126,2.1154 -0.83333,3.33333 1.26779,1.26779 2.33333,0.65891 2.33333,-1.33333 z m 7,-0.16667 c 0,-1.00833 -0.675,-1.83333 -1.5,-1.83333 -0.825,0 -1.5,0.825 -1.5,1.83333 0,1.00834 0.675,1.83334 1.5,1.83334 0.825,0 1.5,-0.825 1.5,-1.83334 z m -21,-7.33333 c 0,-0.825 -0.45,-1.5 -1,-1.5 -0.55,0 -1,0.675 -1,1.5 0,0.825 0.45,1.5 1,1.5 0.55,0 1,-0.675 1,-1.5 z m 8,0 c 0,-0.825 -0.64844,-1.5 -1.44098,-1.5 -1.67065,0 -2.79841,1.42728 -1.86517,2.36052 1.19516,1.19516 3.30615,0.64571 3.30615,-0.86052 z m 6,0 c 0,-0.825 -0.675,-1.5 -1.5,-1.5 -0.825,0 -1.5,0.675 -1.5,1.5 0,0.825 0.675,1.5 1.5,1.5 0.825,0 1.5,-0.675 1.5,-1.5 z m 7,0 c 0,-0.825 -0.675,-1.5 -1.5,-1.5 -0.825,0 -1.5,0.675 -1.5,1.5 0,0.825 0.675,1.5 1.5,1.5 0.825,0 1.5,-0.675 1.5,-1.5 z m 9,0 c 0,-0.93333 -0.94444,-1.5 -2.5,-1.5 -1.55555,0 -2.5,0.56667 -2.5,1.5 0,0.93333 0.94445,1.5 2.5,1.5 1.55556,0 2.5,-0.56667 2.5,-1.5 z m -30,-7.5 c 0,-1.1 -0.45,-2 -1,-2 -0.55,0 -1,0.9 -1,2 0,1.1 0.45,2 1,2 0.55,0 1,-0.9 1,-2 z m 8,0 c 0,-1.1 -0.62251,-2 -1.38337,-2 -0.76085,0 -1.61872,0.9 -1.90638,2 -0.38794,1.48349 -0.0307,2 1.38337,2 1.23971,0 1.90638,-0.69941 1.90638,-2 z m 6,0 c 0,-1.11111 -0.66667,-2 -1.5,-2 -0.83333,0 -1.5,0.88889 -1.5,2 0,1.11111 0.66667,2 1.5,2 0.83333,0 1.5,-0.88889 1.5,-2 z m 7,0 c 0,-1.11111 -0.66667,-2 -1.5,-2 -0.83333,0 -1.5,0.88889 -1.5,2 0,1.11111 0.66667,2 1.5,2 0.83333,0 1.5,-0.88889 1.5,-2 z m 9,0 c 0,-1.46667 -0.66667,-2 -2.5,-2 -1.83333,0 -2.5,0.53333 -2.5,2 0,1.46667 0.66667,2 2.5,2 1.83333,0 2.5,-0.53333 2.5,-2 z m -36,-16 v -9.04228 l 19.75,0.27114 19.75,0.27114 v 8.5 8.5 l -19.75,0.27114 -19.75,0.27114 z m 36,0 v -5 h -16 -16 v 5 5 h 16 16 z m -36,-15.97886 v -5.02114 h 19.48095 19.48095 l 0.60193,2.39829 c 0.33106,1.31906 0.45214,3.45656 0.26905,4.75 l -0.33288,2.35171 -19.75,0.27114 -19.75,0.27114 z m 36,-0.0211 c 0,-0.625 -6,-1 -16,-1 -10,0 -16,0.375 -16,1 0,0.625 6,1 16,1 10,0 16,-0.375 16,-1 z m 11,66 c 0,-1.93902 0.66667,-2 21.865135,-2 20.5055,0 22.02667,-0.12706 24.46283,-2.04333 5.33896,-4.19963 4.0446,-13.31707 -2.2614,-15.9291 -3.73115,-1.54549 -7.49485,-0.69019 -10.59209,2.40704 -1.2943,1.2943 -2.60554,2.101 -2.91387,1.79266 -0.30834,-0.30833 -0.56061,-13.72996 -0.56061,-29.82584 v -29.26524 l 3.13843,-2.23476 c 4.25938,-3.03294 10.46475,-2.99402 14.63859,0.0918 6.01293,4.44558 6.22299,5.74337 6.22299,38.44774 0,42.25467 1.36014,40.55903 -32.53394,40.55903 -20.799395,0 -21.466065,-0.0621 -21.466065,-2 z m 48.953095,-70.11325 c -1.33062,-3.2124 -4.87061,-5.22189 -8.99262,-5.10469 -5.97682,0.16994 -5.96048,0.0954 -5.96048,27.20145 v 24.73863 l 3.83317,-1.02313 c 3.16356,-0.8444 4.51739,-0.68912 7.75001,0.88893 l 3.91683,1.91206 0.26904,-22.99693 c 0.17393,-14.86741 -0.11451,-23.9229 -0.81595,-25.61632 z m 118.40407,63.48669 c -0.82806,-0.33958 -0.71675,-1.80107 0.40417,-5.30626 1.49763,-4.68322 1.69366,-4.85832 6.14283,-5.4872 4.24846,-0.6005 4.78905,-0.42173 7.15194,2.36517 2.38789,2.81638 2.69834,2.91515 4.7176,1.5008 2.07295,-1.45195 2.09597,-1.65139 0.56203,-4.86812 -1.56239,-3.27634 -1.53264,-3.43959 1.28239,-7.03876 2.68295,-3.43027 3.16872,-3.6473 7.03721,-3.14395 3.18076,0.41386 4.2948,0.17721 4.75,-1.00901 1.03863,-2.70664 0.67175,-3.38171 -2.71578,-4.99711 -3.07621,-1.46694 -3.31579,-1.93271 -3.38594,-6.58251 -0.0719,-4.76823 0.084,-5.07048 3.31045,-6.4186 3.48618,-1.45661 3.83161,-2.06292 2.76254,-4.84887 -0.49188,-1.28182 -1.49401,-1.49857 -4.75,-1.02741 -3.85679,0.55811 -4.31503,0.35744 -7.00848,-3.06907 -2.82906,-3.59904 -2.85206,-3.72876 -1.25489,-7.07805 1.59735,-3.34969 1.58272,-3.43199 -0.80339,-4.51918 -2.12094,-0.96636 -2.73392,-0.75446 -4.81445,1.6643 -2.17817,2.53228 -2.78168,2.71203 -6.98767,2.08131 -4.34531,-0.65162 -4.68716,-0.9356 -6.09303,-5.0616 -0.81919,-2.40418 -1.22887,-4.63181 -0.91039,-4.95028 1.45918,-1.45919 3.34198,-0.28438 4.68125,2.92096 1.97139,4.7182 5.24846,4.73517 8.28741,0.0429 l 2.22295,-3.43234 4.51761,2.52494 c 5.66237,3.16476 5.93338,3.63184 4.54619,7.83508 -1.81625,5.50328 -0.10462,7.64123 5.50226,6.87273 l 4.46549,-0.61207 1.98931,4.38438 c 1.09412,2.41141 1.99919,4.87854 2.01127,5.48251 0.0121,0.60396 -1.78393,1.91246 -3.99112,2.90777 -3.36148,1.51581 -3.95799,2.22105 -3.67377,4.3434 0.23313,1.74084 1.51218,3.14241 4.08723,4.47874 4.0704,2.11235 4.14312,2.7336 1.15662,9.88131 -1.46415,3.50419 -1.59411,3.57104 -5.27905,2.7155 -5.12271,-1.18935 -5.05989,-1.20082 -6.31995,1.15362 -0.85088,1.58988 -0.75927,2.96093 0.38968,5.83245 l 1.50204,3.75396 -5.38824,3.09485 -5.38824,3.09484 -2.11818,-3.42728 c -3.08162,-4.98618 -6.59458,-4.75458 -8.6872,0.57271 -1.58097,4.02476 -1.81989,4.23086 -3.9107,3.37344 z M 99.160925,369.62668 c -0.3815,-0.38149 -0.69363,-1.29362 -0.69363,-2.02696 0,-1.05011 3.095545,-1.33333 14.573315,-1.33333 13.3406,0 14.54493,0.14803 14.23758,1.75 -0.29685,1.54728 -1.90464,1.78208 -13.87969,2.02696 -7.44918,0.15233 -13.856085,-0.0352 -14.237575,-0.41667 z m -0.69363,-9.36029 c 0,-1.99006 0.44972,-2.04616 14.249995,-1.77746 11.87669,0.23125 14.25,0.52728 14.25,1.77746 0,1.25018 -2.37331,1.54621 -14.25,1.77746 -13.800275,0.2687 -14.249995,0.2126 -14.249995,-1.77746 z m 332.999995,-0.33822 c 0,-3.18639 -2.64488,-4.20329 -4.24952,-1.63384 -1.57769,2.52628 -2.58434,2.44463 -6.18922,-0.50196 -2.67001,-2.18245 -2.82887,-2.64322 -1.73729,-5.03897 1.56696,-3.43912 0.64869,-4.74973 -2.79753,-3.99282 -2.43532,0.53489 -2.86678,0.26101 -3.45228,-2.19145 -0.36803,-1.54151 -0.88651,-3.53801 -1.15219,-4.43667 -0.33111,-1.11993 0.31298,-1.83371 2.04748,-2.26905 3.0807,-0.7732 3.43482,-4.17524 0.53055,-5.09702 -2.43462,-0.77272 -2.46975,-1.44706 -0.31122,-5.97355 1.35266,-2.83656 2.09901,-3.41747 3.75,-2.91874 3.75558,1.13449 4.06203,0.92045 3.95558,-2.76273 -0.0965,-3.34051 0.22186,-3.78366 3.70045,-5.15009 3.68666,-1.44816 3.85544,-1.41976 5.3787,0.90502 2.01037,3.06821 3.33307,3.03902 4.52649,-0.0999 1.05341,-2.77067 2.22554,-3.01454 6.80912,-1.4167 2.74937,0.95844 3.04032,1.41949 2.52422,4 -0.63862,3.19312 1.02134,3.86762 4.68843,1.90505 1.58374,-0.84759 2.29987,-0.4089 4.41589,2.7051 2.52245,3.71211 2.52313,3.71939 0.54397,5.8261 -2.66504,2.83681 -2.49653,4.48045 0.45935,4.48045 3.15309,0 3.47968,0.66788 2.68947,5.5 -0.55933,3.42032 -1.05095,4.04586 -3.39229,4.31642 -2.84147,0.32836 -3.5395,1.98224 -1.63882,3.88292 1.55263,1.55263 0.18934,5.0654 -2.70081,6.9591 -2.27175,1.48851 -2.59497,1.47376 -4.44778,-0.20301 -2.27315,-2.05717 -3.61073,-1.23027 -4.11607,2.54457 -0.29672,2.21645 -0.87343,2.53457 -5.08468,2.80479 -4.456,0.28593 -4.75,0.15329 -4.75,-2.14301 z m 6,-3.97657 c 0,-1.64332 0.97636,-2.78038 3.36586,-3.91985 3.09142,-1.4742 3.49716,-1.47377 4.97619,0.005 2.03648,2.03648 3.46718,0.7548 1.92104,-1.72095 -1.76961,-2.8336 0.43469,-7.87097 3.6113,-8.25269 3.33773,-0.40109 4.04035,-2.79698 0.82023,-2.79698 -2.05035,0 -2.58821,-0.61926 -3.15308,-3.63025 -0.40709,-2.17001 -0.25074,-4.06055 0.38871,-4.7 0.58836,-0.58836 1.06975,-1.6451 1.06975,-2.34831 0,-0.98755 -0.5476,-1.02906 -2.40592,-0.18235 -1.94716,0.88718 -2.89457,0.74008 -4.96858,-0.77144 -1.40946,-1.02721 -2.57679,-2.88015 -2.59408,-4.11765 -0.0389,-2.78868 -1.67441,-2.95019 -2.53142,-0.25 -0.49054,1.54556 -1.51303,2 -4.5,2 -2.98697,0 -4.00946,-0.45444 -4.5,-2 -0.99727,-3.14212 -2.83122,-2.40611 -2.17539,0.87303 0.78507,3.92535 -2.88408,7.52662 -6.69419,6.57035 -3.04003,-0.763 -3.61753,0.95797 -0.82328,2.45341 2.41904,1.29462 1.77413,7.72175 -0.91946,9.16332 -2.647,1.41663 -2.39172,3.30496 0.34987,2.58802 3.27566,-0.85661 6.93832,3.87176 5.47941,7.07373 -1.30269,2.8591 -7e-5,4.3858 1.72693,2.02399 1.83339,-2.50731 7.40184,-1.28181 8.60958,1.89479 1.1496,3.02366 2.94653,3.05084 2.94653,0.0446 z m -7.79933,-10.71289 c -3.01427,-2.80821 -3.64853,-6.20557 -1.81903,-9.74343 1.65222,-3.19505 3.39245,-4.22889 7.11836,-4.22889 3.68741,0 5.46268,1.02715 7.03699,4.07152 2.02875,3.92318 1.85201,5.31273 -1.12588,8.85175 -3.12582,3.71483 -7.87231,4.15899 -11.21044,1.04905 z m 8.96779,-4.44271 c 0.86067,-1.88895 0.8268,-2.83039 -0.14388,-4 -2.47578,-2.98313 -8.02458,-1.27492 -8.02458,2.47039 0,4.35224 6.34134,5.53971 8.16846,1.52961 z M 266.4673,357.39956 c 0,-1.49925 0.92185,-2.11316 3.93839,-2.6228 5.14994,-0.87008 10.69715,-5.1541 12.14189,-9.37699 0.63348,-1.85162 0.93817,-5.58957 0.67711,-8.30655 -0.62597,-6.51455 -4.95241,-11.19438 -11.88703,-12.85797 -3.82579,-0.91779 -4.87036,-1.59981 -4.87036,-3.17993 0,-1.77837 0.42932,-1.93101 3.70349,-1.31677 4.53581,0.85092 10.21107,3.66759 12.50837,6.20799 4.83326,5.34471 6.18223,15.68107 2.88546,22.10965 -3.3155,6.4651 -7.15034,9.1176 -15.34732,10.61551 -3.28953,0.60113 -3.75,0.44492 -3.75,-1.27214 z M 98.467295,352.26635 c 0,-1.99006 0.44972,-2.04616 14.249995,-1.77746 11.87669,0.23125 14.25,0.52728 14.25,1.77746 0,1.25018 -2.37331,1.54621 -14.25,1.77746 -13.800275,0.2687 -14.249995,0.2126 -14.249995,-1.77746 z m 0,-8 c 0,-1.99006 0.44972,-2.04616 14.249995,-1.77746 11.87669,0.23125 14.25,0.52728 14.25,1.77746 0,1.25018 -2.37331,1.54621 -14.25,1.77746 -13.800275,0.2687 -14.249995,0.2126 -14.249995,-1.77746 z m 0.66667,-5.66667 c -0.36667,-0.36666 -0.66667,-1.26666 -0.66667,-2 0,-1.04981 3.083325,-1.33333 14.499995,-1.33333 7.975,0 14.5,0.1882 14.5,0.41821 0,0.23002 -0.27314,1.13002 -0.60699,2 -0.51116,1.33206 -2.69513,1.58179 -13.83333,1.58179 -7.27449,0 -13.526345,-0.3 -13.893005,-0.66667 z M 403.96729,326.39329 c -2.36576,-0.50189 -3.06898,-1.23838 -3.32626,-3.48369 -0.28059,-2.44862 -0.67973,-2.77968 -2.85091,-2.36463 -2.13674,0.40846 -2.75317,-0.0643 -4.012,-3.07712 -1.42093,-3.40078 -1.38454,-3.6373 0.81497,-5.29639 2.09345,-1.57909 2.17905,-1.96697 0.94354,-4.27554 -1.1816,-2.20785 -1.13325,-2.88309 0.37087,-5.17866 1.67749,-2.56017 2.59448,-2.69796 6.68641,-1.00472 1.18833,0.49173 1.79973,-0.0166 2.26905,-1.88655 0.65577,-2.61276 2.13183,-3.06094 6.35433,-1.92935 1.6905,0.45303 2.25,1.33872 2.25,3.56171 0,2.72077 0.25325,2.93256 3.1488,2.63337 2.85228,-0.29473 3.27239,0.0315 4.46131,3.46409 1.26308,3.64672 1.2198,3.82471 -1.1488,4.72525 -2.82437,1.07382 -3.09876,2.21137 -0.96131,3.98529 2.10996,1.75111 1.87256,3.30137 -0.90515,5.91089 -2.27721,2.13933 -2.53719,2.17299 -4.88772,0.63287 -2.42549,-1.58924 -2.50697,-1.5567 -3.54284,1.41479 -0.58314,1.6728 -1.42116,2.98821 -1.86227,2.92314 -0.44111,-0.0651 -2.15202,-0.40471 -3.80202,-0.75475 z m 2.5,-5.65169 c 0,-2.14954 4.62436,-3.74665 7.06547,-2.44021 1.99741,1.06898 2.85873,-0.34582 0.93453,-1.53504 -1.80099,-1.11307 -1.04846,-5.22225 1.25,-6.82558 l 2.25,-1.56952 -2.31574,-0.0524 c -3.82842,-0.0867 -6.17884,-1.90543 -6.25194,-4.83763 -0.0645,-2.58936 -0.11548,-2.61611 -1.10191,-0.5789 -1.22516,2.53024 -5.47173,4.75345 -6.35372,3.32637 -0.3271,-0.52931 -1.31291,-0.96234 -2.19069,-0.96234 -1.42996,0 -1.42087,0.19349 0.0874,1.86015 1.32344,1.46237 1.46879,2.42464 0.67974,4.5 -0.55199,1.45192 -1.46478,2.63985 -2.02839,2.63985 -0.56361,0 -1.02475,0.48032 -1.02475,1.06739 0,0.58706 0.7875,0.83117 1.75,0.54246 2.3578,-0.70723 6.43018,2.75702 5.64533,4.80232 -0.33512,0.87331 -0.11116,1.58783 0.49768,1.58783 0.60885,0 1.10699,-0.68614 1.10699,-1.52475 z m -307.999995,3.52475 c 0,-1.99006 0.44972,-2.04616 14.249995,-1.77746 11.87669,0.23125 14.25,0.52728 14.25,1.77746 0,1.25018 -2.37331,1.54621 -14.25,1.77746 -13.800275,0.2687 -14.249995,0.2126 -14.249995,-1.77746 z M 420.79358,262.0799 c -1.19553,-0.5781 -5.15118,-5.03831 -8.79032,-9.91157 -3.63913,-4.87326 -8.84825,-10.78232 -11.5758,-13.13123 -2.72755,-2.34891 -4.95941,-4.75398 -4.95968,-5.34459 -2.7e-4,-0.5906 -5.17355,-6.2156 -11.49619,-12.5 -6.32263,-6.28439 -11.49763,-11.9621 -11.5,-12.61714 -0.0125,-3.46146 3.13748,-1.32267 14.17387,9.6238 6.68839,6.6339 12.39972,11.82263 12.69183,11.53051 0.29212,-0.29212 -4.73413,-5.81013 -11.16944,-12.26224 -6.43531,-6.45212 -11.70056,-12.28687 -11.70056,-12.96611 0,-2.92609 3.33702,-0.53284 14.66158,10.51502 6.62436,6.4625 12.56214,11.86306 13.19508,12.00124 0.63293,0.13818 2.83661,2.11773 4.89706,4.39898 2.06046,2.28126 7.34628,6.85053 11.74628,10.15393 11.22068,8.42421 13.71492,12.44577 10.98874,17.71763 -2.07986,4.022 -6.38931,5.09981 -11.16245,2.79177 z m 92.30748,-8.47766 c -1.99857,-2.56526 -3.63377,-4.95563 -3.63377,-5.31194 0,-0.35631 1.394,-1.67846 3.09777,-2.93812 2.21568,-1.63811 3.40491,-1.98315 4.17638,-1.21168 0.77146,0.77146 0.55711,1.65483 -0.75277,3.10222 -1.76764,1.95322 -1.76838,2.09321 -0.0214,4.02363 0.99549,1.1 2.222,2 2.72558,2 0.50358,0 3.14445,-1.87939 5.86859,-4.17642 3.95701,-3.3366 5.19961,-3.92357 6.17941,-2.91902 0.97552,1.00016 -10e-4,2.36104 -4.77358,6.65215 -3.3,2.96712 -6.7273,5.40568 -7.61623,5.41903 -0.88892,0.0133 -3.25142,-2.07459 -5.25,-4.63985 z m -149.99891,0.59153 c -3.09783,-2.43676 -3.43886,-6.13772 -0.85417,-9.26969 0.97938,-1.18675 6.38229,-6.63232 12.00647,-12.10127 8.0022,-7.78134 10.48897,-9.68033 11.43617,-8.73313 0.94721,0.94721 -1.22867,3.65642 -10.00646,12.45919 -11.02808,11.05945 -12.82115,13.88788 -9.59012,15.12774 2.00664,0.77002 2.55452,0.34325 14.64821,-11.41026 9.12829,-8.87153 12.22504,-11.00985 12.22504,-8.44146 0,2.71362 -22.43449,24.44146 -25.23637,24.44146 -1.09665,0 -3.1796,-0.93266 -4.62877,-2.07258 z M 46.467295,252.28145 c 0,-1.97471 0.59278,-2.0151 29.57333,-2.0151 27.626645,0 29.551155,0.11519 29.236655,1.75 -0.31007,1.61178 -2.64582,1.77094 -29.573315,2.0151 -28.73076,0.26052 -29.23667,0.23024 -29.23667,-1.75 z m 60.999995,-39.0151 c 0,-22.55 0.35599,-41 0.79109,-41 0.4351,0 2.01441,2.3625 3.50957,5.25 2.56747,4.95837 5.4107,10.06251 10.72305,19.25 1.27207,2.2 3.40152,6.025 4.73209,8.5 2.4743,4.60243 7.31928,13.13775 10.50131,18.5 0.97913,1.65 2.4653,4.35 3.30258,6 0.83729,1.65 4.15055,7.5 7.36278,13 3.21223,5.5 5.64221,10.3375 5.39996,10.75 -0.24225,0.4125 -10.76391,0.75 -23.38145,0.75 h -22.94098 z m 7.63976,35.25 c 1.28814,-1.65723 1.43975,-1.6471 2.86024,0.19113 1.46755,1.89914 1.5,1.89373 1.5,-0.25 0,-1.52446 0.60851,-2.19113 2,-2.19113 1.33333,0 2,0.66667 2,2 0,2.46337 0.85631,2.54447 2.63976,0.25 1.28814,-1.65723 1.43975,-1.6471 2.86024,0.19113 1.46755,1.89914 1.5,1.89373 1.5,-0.25 0,-1.52446 0.60851,-2.19113 2,-2.19113 1.33333,0 2,0.66667 2,2 0,1.1 0.45,2 1,2 0.55,0 1,-0.675 1,-1.5 0,-0.825 0.41786,-1.5 0.92857,-1.5 0.51072,0 1.60357,0.675 2.42857,1.5 1.41174,1.41173 7.64287,2.16737 7.64287,0.92683 0,-0.55767 -10.89531,-20.1747 -27.35039,-49.24444 -4.4575,-7.87468 -8.29469,-13.74718 -8.52708,-13.05 -0.2324,0.69719 0.095,1.44011 0.72746,1.65094 1.40924,0.46975 1.54253,4.21667 0.15,4.21667 -0.55,0 -1,0.45 -1,1 0,0.55 0.933,1 2.07332,1 1.44491,0 1.96434,0.53042 1.71375,1.75 -0.20692,1.00705 -1.08713,1.62525 -2.07332,1.45616 -1.96335,-0.33663 -2.34985,1.39681 -0.46375,2.07985 0.97959,0.35475 0.99155,0.89151 0.0553,2.48117 -1.01781,1.72819 -0.90678,2.10378 0.75,2.53704 1.0696,0.2797 1.9447,1.0428 1.9447,1.69578 0,0.65298 -0.8751,1.41608 -1.94467,1.69578 -1.65678,0.43326 -1.76781,0.80885 -0.75,2.53704 0.93622,1.58966 0.92426,2.12642 -0.0553,2.48117 -1.88269,0.6818 -1.50275,1.98665 0.75,2.57576 2.55514,0.66818 2.58885,2.7435 0.0553,3.40603 -1.65678,0.43326 -1.76781,0.80885 -0.75,2.53704 0.93622,1.58966 0.92426,2.12642 -0.0553,2.48117 -1.97232,0.71425 -1.45665,2.28601 0.74997,2.28601 2.7269,0 2.54774,2.84429 -0.25,3.96884 -1.2375,0.49741 -1.6875,0.93291 -1,0.96777 0.6875,0.0349 1.25,0.96339 1.25,2.06339 0,1.1 -0.5625,2.02852 -1.25,2.06339 -0.6875,0.0349 -0.2375,0.47036 1,0.96777 2.79774,1.12455 2.9769,3.96884 0.25,3.96884 -1.1,0 -2,0.45 -2,1 0,0.55 0.45,1 1,1 0.55,0 1,0.9 1,2 0,1.1 -0.45,2 -1,2 -0.55,0 -1,0.675 -1,1.5 0,2.03056 1.97243,1.89508 3.63976,-0.25 z m 3.02691,-6.91667 c -0.93839,-0.93839 -0.83597,-30.33333 0.10568,-30.33333 0.87219,0 17.22765,28.49921 17.22765,30.01899 0,1.09231 -16.26048,1.38719 -17.33333,0.31434 z m 10.63922,-5.08333 c -0.34724,-0.9625 -1.45811,-2.94447 -2.46862,-4.40437 -1.0105,-1.4599 -1.85158,-3.0349 -1.86907,-3.5 -0.0175,-0.4651 -0.66836,-1.68613 -1.44636,-2.7134 -1.26036,-1.66417 -1.40726,-1.09187 -1.34758,5.25 l 0.067,7.11777 h 3.848 c 3.23861,0 3.74802,-0.27714 3.21666,-1.75 z m 65.70741,14 c -1.66004,-1.5125 -3.29839,-4.2125 -3.64077,-6 l -0.62252,-3.25 h 61.125 61.125 v 2.56574 c 0,3.63118 -1.5991,6.17558 -4.97998,7.92391 -2.49837,1.29195 -10.66171,1.51035 -56.45458,1.51035 h -53.53389 z m 112.15797,-2.90499 c 1.00581,-0.91024 1.82874,-2.03524 1.82874,-2.5 0,-0.46475 -16.9875,-0.79281 -37.75,-0.72901 -20.7625,0.0638 -36.9625,0.3218 -36,0.57333 0.9625,0.25152 1.75,1.09932 1.75,1.88399 0,1.11668 -1.73829,1.42668 -8,1.42668 -6.32762,0 -8,-0.3036 -8,-1.45228 0,-1.07693 1.61536,-1.54405 6.25,-1.80732 3.4375,-0.19527 -2.1875,-0.44175 -12.5,-0.54772 -15.80306,-0.1624 -18.75,0.0353 -18.75,1.25763 0,0.79767 0.7875,1.90899 1.75,2.46959 1.12699,0.65641 20.59017,1.03011 54.67126,1.04969 47.86712,0.0275 53.09591,-0.12765 54.75,-1.62458 z m -99.47741,0.0155 c -1.33293,-1.33293 0.56731,-2.36051 4.36517,-2.36051 2.83643,0 3.94098,0.42041 3.94098,1.5 0,1.07246 -1.09259,1.5 -3.83333,1.5 -2.10834,0 -4.1211,-0.28777 -4.47282,-0.63948 z m -128.006355,0.99366 c -0.37812,-0.37813 -0.6875,-1.7375 -0.6875,-3.02084 0,-2.09876 -0.45238,-2.33333 -4.5,-2.33333 -4.13333,0 -4.5,0.2037 -4.5,2.5 0,1.83333 -0.53333,2.5 -2,2.5 -1.49099,0 -2.02537,-0.69989 -2.09968,-2.75 l -0.0997,-2.75 -0.69416,2.49475 c -0.38179,1.37211 -1.46194,2.64261 -2.40032,2.82332 -1.4074,0.27104 -1.70616,-0.47225 -1.70616,-4.24475 v -4.57332 h 15.5 15.5 v 4.39301 c 0,2.84628 -0.49371,4.58247 -1.40223,4.9311 -1.8514,0.71045 -2.59777,-0.14884 -2.59777,-2.99078 0,-1.80524 -0.55078,-2.33333 -2.43358,-2.33333 -1.8922,0 -2.50397,0.59461 -2.75,2.67288 -0.31655,2.67397 -1.83501,3.9752 -3.12892,2.68129 z m 19.5625,-0.0165 c -0.95884,-0.38685 -1.25,-7.12334 -1.25,-28.921 v -28.41667 h -21.5 -21.5 v 28.5 c 0,27.83333 -0.0468,28.5 -2,28.5 -1.95628,0 -2,-0.66667 -2,-30.5 v -30.5 h 25 24.999995 v 31 c 0,17.05 -0.1125,30.96447 -0.25,30.92105 -0.1375,-0.0434 -0.812495,-0.30592 -1.499995,-0.58333 z m 431.259985,-5.32729 c -1.5753,-1.64426 -2.67199,-3.16084 -2.43709,-3.37018 0.23491,-0.20933 6.2771,-5.18698 13.4271,-11.06145 7.15,-5.87446 16.15,-13.28018 20,-16.45716 9.43331,-7.78426 9.24503,-7.70728 12.17135,-4.97641 5.32299,4.9675 8.06352,14.75493 5.27941,18.85477 -0.8417,1.23948 -1.77882,0.65394 -5.39556,-3.37133 l -4.37694,-4.87132 -9.83913,7.99957 c -5.41152,4.39976 -13.20153,10.75435 -17.31113,14.12132 -4.1096,3.36697 -7.73791,6.12176 -8.06291,6.12176 -0.325,0 -1.87979,-1.34531 -3.4551,-2.98957 z m 14.49001,-10.55982 c 4.675,-3.78001 11.83117,-9.70275 15.9026,-13.16165 4.07143,-3.4589 7.83717,-6.28891 8.36831,-6.28891 0.53114,0 2.25529,1.4625 3.83143,3.25 1.57614,1.7875 2.8729,2.68119 2.88169,1.98598 0.0223,-1.76593 -4.30755,-8.26508 -5.29741,-7.95144 -1.5991,0.50667 -36.56858,29.23297 -36.627,30.0879 -0.0684,1.00064 -0.32067,1.18332 10.94038,-7.92188 z m -26.59937,10.38865 c -0.90121,-1.45818 3.78573,-5.60392 34.98691,-30.947 1.94425,-1.57921 1.91431,-1.68725 -1.68515,-6.07991 -3.4105,-4.16207 -3.71126,-5.07946 -4.33788,-13.23154 l -0.6733,-8.75941 2.9044,-2.37471 c 1.59741,-1.30609 3.35439,-2.36534 3.90439,-2.35388 0.55,0.0115 3.18959,2.71479 5.86576,6.00739 4.69006,5.77039 4.80247,6.05648 3.11313,7.92318 -1.68621,1.86324 -1.61038,2.11022 2.00121,6.51769 l 3.75384,4.58106 -2.29129,2.43896 c -1.2602,1.34143 -2.86128,2.43896 -3.55795,2.43896 -2.19355,0 -2.76556,-2.24834 -0.91608,-3.60071 1.64559,-1.20329 1.47824,-1.64351 -2.30915,-6.07438 -4.02878,-4.71326 -4.05807,-4.8041 -2.19293,-6.80099 1.86161,-1.9931 1.84542,-2.07407 -1.06297,-5.31755 -4.21509,-4.70075 -5.29682,-3.38672 -4.54394,5.51978 0.59,6.97974 0.90634,7.76619 5.09686,12.67125 l 4.46782,5.22964 -14.21215,11.62112 c -7.81669,6.39162 -15.11216,12.44208 -16.21216,13.44546 -3.16719,2.88899 -10.23365,8.30638 -10.83489,8.30638 -0.30089,0 -0.86991,-0.52236 -1.26448,-1.16079 z m -74.9553,-2.79812 c -2.45946,-0.99607 -7.515,-6.60458 -11.14503,-12.36407 -1.44795,-2.29736 -5.29122,-6.71735 -8.54059,-9.8222 -3.90049,-3.727 -5.50608,-5.89354 -4.72525,-6.37612 0.76895,-0.47523 -2.92818,-4.85255 -10.56826,-12.51259 -8.35568,-8.37751 -11.57191,-12.24826 -11.13126,-13.39656 1.55125,-4.0425 3.75863,-2.75368 15.23716,8.89645 8.94716,9.08091 11.82079,11.45282 12.8453,10.60255 1.01776,-0.84466 2.15696,-0.0736 4.97843,3.36963 2.01227,2.45571 7.45327,7.20429 12.09111,10.55239 9.52902,6.8791 12.51306,10.43566 12.51306,14.9138 0,5.66097 -5.50727,8.5859 -11.55467,6.13672 z m 7.38836,-5.89901 c 0.39194,-2.76945 -3.14598,-6.86414 -9.83369,-11.38124 -2.475,-1.67169 -6.85891,-5.32035 -9.74203,-8.10811 -4.11124,-3.97528 -5.50396,-4.80674 -6.45625,-3.85445 -0.9523,0.9523 -0.23976,2.23752 3.30311,5.95797 2.48454,2.60906 6.37319,7.21875 8.64145,10.24375 6.56537,8.75571 8.1421,10.14932 11.09624,9.80749 1.91737,-0.22185 2.75041,-0.96418 2.99117,-2.66541 z m -249.62932,-22.64341 0.29564,-27.66556 3.26578,-2.91656 3.26577,-2.91655 h 44.28806 44.28806 l 3.44616,3.55408 3.44617,3.55409 v 26.68076 c 0,24.33427 -0.14978,26.70973 -1.70303,27.01019 -1.56377,0.3025 -1.72731,-1.84988 -2,-26.32286 l -0.29697,-26.65231 -2.80576,-2.41197 -2.80577,-2.41198 h -41.36751 -41.36751 l -3.06027,2.57505 -3.06027,2.57504 -0.26645,26.1617 c -0.24704,24.2546 -0.39736,26.18687 -2.0621,26.50707 -1.69828,0.32664 -1.77962,-1.15485 -1.5,-27.32019 z M 59.872825,235.88075 c -0.29244,-0.76207 -0.39081,-3.34957 -0.21862,-5.75 0.31299,-4.36302 0.31444,-4.3645 4.56309,-4.6719 l 4.25,-0.3075 v 6.0575 6.0575 h -4.03138 c -2.51303,0 -4.23165,-0.52186 -4.56309,-1.3856 z m 5.59447,-4.6144 c 0,-1.1 -0.45,-2 -1,-2 -0.55,0 -1,0.9 -1,2 0,1.1 0.45,2 1,2 0.55,0 1,-0.9 1,-2 z m 451.499995,3.56199 c -3.88673,-1.14158 -3.99281,-1.29004 -3.746,-5.24266 0.3488,-5.58609 -1.41143,-6.9272 -6.13536,-4.67451 -1.97644,0.94249 -3.73039,1.52048 -3.89768,1.2844 -0.16728,-0.23607 -1.56103,-2.38964 -3.09722,-4.78571 l -2.79307,-4.3565 3.15475,-2.6435 c 3.95279,-3.31223 3.28015,-5.72564 -1.99141,-7.14512 -3.75835,-1.01202 -3.79499,-1.07017 -3.31485,-5.26086 0.7438,-6.49193 0.93416,-6.73753 5.22207,-6.73753 5.02457,0 6.19336,-2.5814 3.26377,-7.20838 l -1.99035,-3.14355 3.66267,-3.30083 c 4.33376,-3.90562 4.85062,-3.98903 7.76315,-1.25285 3.24177,3.04548 5.9987,1.81373 6.77259,-3.02589 0.61614,-3.85315 0.64838,-3.87693 5.72212,-4.22174 5.41207,-0.3678 6.90482,0.7175 6.90482,5.02011 0,3.36628 3.77917,3.71888 6.98099,0.65135 2.48468,-2.38049 3.02924,-2.52932 4.92906,-1.34718 2.52957,1.57399 2.30422,4.39805 -0.33256,4.1677 -1.01524,-0.0887 -2.90831,0.90117 -4.20682,2.19968 -2.09312,2.09312 -2.73016,2.23675 -5.6158,1.26617 -4.511,-1.51727 -5.75487,-2.67753 -5.75487,-5.36802 0,-2.70887 -1.17938,-3.6887 -3.40976,-2.83283 -1.00408,0.38531 -1.59024,1.81299 -1.59024,3.87329 0,3.01625 -0.34195,3.35879 -4.52112,4.52888 -3.94324,1.10404 -4.75217,1.05674 -6.32874,-0.37004 -2.14923,-1.94502 -3.33477,-2.05124 -4.94314,-0.44287 -0.924,0.924 -0.70388,1.71365 0.97623,3.50204 l 2.16924,2.30905 -2.24639,4.49795 c -2.00753,4.0197 -2.61108,4.49796 -5.67623,4.49796 -2.7466,0 -3.42985,0.39272 -3.42985,1.97141 0,1.38253 0.96554,2.2216 3.2324,2.809 2.8488,0.7382 3.32487,1.36462 4.01168,5.2786 0.70887,4.03969 0.53959,4.65093 -1.87338,6.76429 -2.29357,2.00879 -2.46012,2.51585 -1.23031,3.74566 1.14685,1.14685 2.01719,1.19783 4.49334,0.26319 2.75019,-1.03808 3.4431,-0.87533 6.63342,1.55804 3.28288,2.50398 3.49065,2.96752 2.64764,5.90691 -0.50313,1.75433 -0.91479,3.26941 -0.91479,3.36684 0,0.0974 1.35,0.47366 3,0.83606 1.65,0.3624 3,1.2716 3,2.02044 0,2.09823 -1.1566,2.31726 -5.5,1.04155 z M 218.4673,232.76635 c 0,-0.825 -0.675,-1.5 -1.5,-1.5 -0.825,0 -1.5,-0.675 -1.5,-1.5 0,-0.825 0.675,-1.5 1.5,-1.5 1.25333,0 1.5,-2.05556 1.5,-12.5 0,-11.83333 0.10667,-12.5 2,-12.5 1.89333,0 2,0.66667 2,12.5 v 12.5 h 4.5 c 4.13333,0 4.5,-0.2037 4.5,-2.5 0,-1.83333 0.53333,-2.5 2,-2.5 1.46667,0 2,0.66667 2,2.5 0,2.42857 0.2,2.5 7,2.5 h 7 v -7 -7 h -7 -7 v 3.5 c 0,2.83333 -0.38095,3.5 -2,3.5 -1.61236,0 -2,-0.66667 -2,-3.43963 0,-3.25137 -0.2048,-3.45663 -3.74168,-3.75 -2.61495,-0.21691 -3.84155,-0.83735 -4.07333,-2.06037 -0.30695,-1.61973 1.16805,-1.75 19.81501,-1.75 18.64722,0 20.12192,0.13025 19.81433,1.75 -0.2504,1.31861 -1.50102,1.82513 -5.07332,2.05479 l -4.74101,0.30479 v 6.94521 6.94521 h 5.46922 5.46922 l 0.28078,-12.23782 c 0.24616,-10.72906 0.49653,-12.27919 2.03078,-12.57333 1.59167,-0.30514 1.75,0.80209 1.75,12.23783 0,10.50962 0.2462,12.57332 1.5,12.57332 0.825,0 1.5,0.675 1.5,1.5 0,0.825 -0.675,1.5 -1.5,1.5 -0.825,0 -1.5,0.675 -1.5,1.5 0,0.825 -0.68912,1.5 -1.53138,1.5 -0.84227,0 -1.79041,-0.675 -2.10699,-1.5 -0.48611,-1.26676 -3.80766,-1.5 -21.36163,-1.5 -17.55397,0 -20.87552,0.23324 -21.36163,1.5 -0.31658,0.825 -1.26472,1.5 -2.10699,1.5 -0.84226,0 -1.53138,-0.675 -1.53138,-1.5 z m 57,-4.5 c 0,-2.33333 0.44444,-3 2,-3 1.55556,0 2,0.66667 2,3 0,2.33333 -0.44444,3 -2,3 -1.55556,0 -2,-0.66667 -2,-3 z m 6,0 c 0,-2.33333 0.44444,-3 2,-3 1.55556,0 2,0.66667 2,3 0,2.33333 -0.44444,3 -2,3 -1.55556,0 -2,-0.66667 -2,-3 z m 6,0 c 0,-2 0.5,-3 1.5,-3 1,0 1.5,1 1.5,3 0,2 -0.5,3 -1.5,3 -1,0 -1.5,-1 -1.5,-3 z m -217.000005,-1 c 0,-1.33333 0.66667,-2 2,-2 1.33333,0 2,0.66667 2,2 0,1.33333 -0.66667,2 -2,2 -1.33333,0 -2,-0.66667 -2,-2 z m 6,0 c 0,-1.33333 0.66667,-2 2,-2 1.33333,0 2,0.66667 2,2 0,1.33333 -0.66667,2 -2,2 -1.33333,0 -2,-0.66667 -2,-2 z m 5.5,1 c -0.83704,-1.35436 0.29243,-3 2.05902,-3 0.79254,0 1.44098,0.9 1.44098,2 0,2.07031 -2.41251,2.7596 -3.5,1 z m 5.5,-1 c 0,-1.33333 0.66667,-2 2,-2 1.33333,0 2,0.66667 2,2 0,1.33333 -0.66667,2 -2,2 -1.33333,0 -2,-0.66667 -2,-2 z m -27,-10 v -6 h 4 4 v 6 6 h -4 -4 z m 5,0 c 0,-1.1 -0.45,-2 -1,-2 -0.55,0 -1,0.9 -1,2 0,1.1 0.45,2 1,2 0.55,0 1,-0.9 1,-2 z m 210.188165,4.26148 c 0.50201,-2.60673 3.81184,-2.89745 3.81184,-0.3348 0,1.43109 -0.64223,2.07332 -2.07332,2.07332 -1.4311,0 -1.96962,-0.53852 -1.73852,-1.73852 z m 5.81184,-0.26148 c 0,-1.7037 0.66667,-2 4.5,-2 3.83333,0 4.5,0.2963 4.5,2 0,1.7037 -0.66667,2 -4.5,2 -3.83333,0 -4.5,-0.2963 -4.5,-2 z m 119.40374,0.84426 c -0.87486,-1.41556 13.19062,-15.21299 14.61262,-14.33414 2.02823,1.25351 0.80389,3.32918 -5.49982,9.32407 -6.66198,6.33559 -7.87979,7.00512 -9.1128,5.01007 z m -49.62026,-2.59426 c -4.45532,-5.10768 -4.87913,-10.35812 -1.43277,-17.75 2.9956,-6.42505 12.13671,-16.5 14.97063,-16.5 2.84916,0 13.67865,10.76036 13.67865,13.59134 0,2.4149 -8.04674,10.40866 -10.47766,10.40866 -0.83729,0 -2.42469,-0.90235 -3.52756,-2.00522 -1.65074,-1.65074 -2.34009,-1.79608 -3.89959,-0.82215 -2.60173,1.6248 -5.09519,7.18474 -5.09519,11.3613 0,3.86583 -1.7279,4.56907 -4.21651,1.71607 z m 5.58811,-15.09182 c 3.89088,-4.28103 5.53846,-4.61853 8.53439,-1.74825 l 2.70253,2.58919 3.39789,-3.50573 3.39789,-3.50574 -4.41036,-4.49382 c -2.42569,-2.47161 -4.74189,-4.49383 -5.14709,-4.49383 -1.38088,0 -9.34004,9.05238 -11.59685,13.18971 -1.2375,2.26867 -2.23198,5.51658 -2.20996,7.21757 l 0.04,3.09272 1.58155,-3 c 0.86986,-1.65 2.53934,-4.05382 3.70997,-5.34182 z m 37.57873,11.28198 c -1.13483,-1.3674 -0.50218,-2.4001 4.61733,-7.5371 7.26036,-7.28516 8.85626,-8.30212 10.2995,-6.56313 0.8229,0.99155 -0.6553,2.9959 -6.26232,8.49132 -6.47661,6.34769 -7.49409,7.00712 -8.65451,5.60891 z m 124.35805,-1.19016 c -1.59672,-1.5125 -3.51325,-4.24712 -4.25894,-6.07693 -1.1985,-2.9409 -1.13498,-3.85721 0.54737,-7.8971 2.48684,-5.97171 6.29036,-8.77597 11.90319,-8.77597 5.29182,0 9.2531,2.62613 11.85313,7.85802 2.49341,5.01733 1.5128,9.97605 -2.832,14.32085 -2.95554,2.95554 -3.92593,3.32113 -8.81537,3.32113 -4.62327,0 -5.95447,-0.43595 -8.39738,-2.75 z m 12.60043,-1.70284 c 8.17718,-4.22859 5.04959,-17.54716 -4.12059,-17.54716 -4.34318,0 -8.78822,4.80505 -8.78822,9.5 0,2.70513 0.75897,4.41282 2.92308,6.57692 3.2535,3.25351 5.80952,3.62984 9.98573,1.47024 z m -460.908805,0.45284 c 0,-1.33333 0.66667,-2 2,-2 1.33333,0 2,0.66667 2,2 0,1.33333 -0.66667,2 -2,2 -1.33333,0 -2,-0.66667 -2,-2 z m 6,0 c 0,-1.33333 0.66667,-2 2,-2 1.33333,0 2,0.66667 2,2 0,1.33333 -0.66667,2 -2,2 -1.33333,0 -2,-0.66667 -2,-2 z m 5.73557,1.40223 c -0.97315,-0.97314 0.36299,-3.40223 1.87142,-3.40223 0.76616,0 1.39301,0.9 1.39301,2 0,1.88258 -1.94752,2.71914 -3.26443,1.40223 z m 5.26443,-1.40223 c 0,-1.33333 0.66667,-2 2,-2 1.33333,0 2,0.66667 2,2 0,1.33333 -0.66667,2 -2,2 -1.33333,0 -2,-0.66667 -2,-2 z m 493.999995,-1.19501 c -5.56782,-2.71393 -6.33225,-3.78038 -4.31081,-6.01405 1.50249,-1.66022 1.77093,-1.59413 4.98421,1.22716 4.79807,4.21277 5.99826,3.70042 2.25197,-0.96134 l -3.16887,-3.94324 2.72417,-2.34323 2.72417,-2.34324 -6.74971,-7.96352 c -5.12065,-6.04152 -8.10083,-8.60488 -12.34786,-10.62085 -3.07899,-1.46153 -5.93951,-2.44636 -6.35671,-2.18852 -0.4172,0.25785 0.41475,2.00709 1.84879,3.8872 2.26811,2.97365 2.8794,3.27279 4.6985,2.29923 1.82446,-0.97642 2.52018,-0.62311 5.45487,2.77013 1.85004,2.1391 4.06574,4.90403 4.92378,6.14429 1.81858,2.62865 1.30965,3.50387 -4.89502,8.41806 -3.03359,2.40265 -4.1768,2.82847 -5.0962,1.89824 -0.91651,-0.92733 -0.32049,-1.99471 2.62854,-4.70723 l 3.81381,-3.50796 -2.67922,-3.51265 c -1.92546,-2.5244 -2.98437,-3.20751 -3.76382,-2.42806 -1.91615,1.91615 -3.0893,1.19502 -8.05852,-4.95346 -4.70106,-5.81668 -4.81166,-6.0994 -3.11812,-7.97074 2.98673,-3.30029 5.04584,-3.24109 12.17528,0.35004 5.49882,2.76979 8.07854,4.95378 13.34299,11.2962 10.2106,12.30137 9.58028,11.08806 7.12055,13.70632 -1.18072,1.25682 -2.14677,2.55105 -2.14677,2.87607 0,0.32501 1.57514,2.47625 3.50031,4.78053 1.92517,2.30428 3.24862,4.59686 2.94098,5.09462 -1.01853,1.64802 -7.87148,0.93746 -12.44129,-1.29 z m -521.161175,-8.80317 0.33882,-6.00182 h 3.91118 3.91118 v 6 6 l -4.25,0.002 -4.25,0.002 z m 5.16118,-0.002 c 0,-1.1 -0.45,-2 -1,-2 -0.55,0 -1,0.9 -1,2 0,1.1 0.45,2 1,2 0.55,0 1,-0.9 1,-2 z m 166.000005,1.5 v -3.5 h -8 c -8.63408,0 -9.88182,-0.94426 -5.83094,-4.41273 1.72558,-1.47748 2.54064,-1.62515 3.98643,-0.72224 1.19829,0.74835 8.63954,1.13497 21.84451,1.13497 13.20497,0 20.64622,-0.38662 21.84451,-1.13497 1.44579,-0.90291 2.26085,-0.75524 3.98643,0.72224 4.68155,4.00848 3.23127,4.41273 -15.83094,4.41273 h -18 v 3.5 c 0,2.83333 -0.38095,3.5 -2,3.5 -1.61905,0 -2,-0.66667 -2,-3.5 z m 189.56282,-2.39833 c -0.30536,-0.49408 0.72689,-2.27081 2.29389,-3.94829 2.8411,-3.04141 2.86311,-3.04626 7.84592,-1.73182 l 4.99684,1.31814 4.65026,-4.45645 c 3.21322,-3.0793 4.65026,-5.26495 4.65026,-7.07279 v -2.61636 l -3.79216,3.70295 c -4.00318,3.909 -5.97267,4.3781 -11.00944,2.62227 -2.67075,-0.93103 -3.19347,-1.70367 -3.77467,-5.57937 -0.63751,-4.25123 -0.46404,-4.71435 3.15377,-8.41932 l 3.8284,-3.92063 h -2.70868 c -1.87756,0 -4.04059,1.35105 -7.04953,4.4032 l -4.34086,4.4032 1.03992,5.07656 c 0.96394,4.70568 0.86694,5.26067 -1.32773,7.5968 -2.56308,2.72826 -4.48526,3.19291 -5.61911,1.35829 -0.40835,-0.66072 0.289,-1.97748 1.61658,-3.05249 2.24185,-1.81533 2.28307,-2.092 1.03644,-6.95611 l -1.29827,-5.06559 6.42159,-6.42159 6.4216,-6.4216 5.85244,1.52437 c 3.21885,0.8384 6.09547,1.76738 6.39249,2.0644 0.29702,0.29702 -1.7961,2.90556 -4.65137,5.79675 -5.28724,5.35374 -6.12909,7.35613 -3.99141,9.49381 2.15485,2.15485 4.2967,1.27968 9.3,-3.8 2.70865,-2.75 5.21694,-5 5.57398,-5 0.35703,0 1.35,2.8125 2.20659,6.25 l 1.55744,6.25 -6.48751,6.41897 -6.48752,6.41896 -4.87582,-1.55922 c -4.60897,-1.47389 -4.96944,-1.45578 -6.58647,0.33103 -1.83085,2.02307 -3.93406,2.4543 -4.83786,0.99193 z M 70.655455,199.52765 c 0.50201,-2.60673 3.81184,-2.89745 3.81184,-0.3348 0,1.43109 -0.64222,2.07332 -2.07332,2.07332 -1.4311,0 -1.96962,-0.53852 -1.73852,-1.73852 z m 5.81184,-0.3348 c 0,-2.56265 3.30983,-2.27193 3.81184,0.3348 0.2311,1.2 -0.30742,1.73852 -1.73851,1.73852 -1.4311,0 -2.07333,-0.64223 -2.07333,-2.07332 z m 5.73557,1.47555 c -0.97315,-0.97314 0.36299,-3.40223 1.87142,-3.40223 0.76616,0 1.39301,0.9 1.39301,2 0,1.88258 -1.94752,2.71914 -3.26443,1.40223 z m 5.26443,-1.40223 c 0,-1.33333 0.66667,-2 2,-2 1.33333,0 2,0.66667 2,2 0,1.33333 -0.66667,2 -2,2 -1.33333,0 -2,-0.66667 -2,-2 z m 293.242555,-6.5038 c -0.69159,-0.78524 -1.9253,-1.17144 -2.74157,-0.85821 -2.22343,0.85321 -3.06897,-2.49858 -1.12157,-4.44598 1.39794,-1.39794 1.97396,-1.45242 3.73412,-0.35317 3.54062,2.21115 3.03522,0.71231 -1.1319,-3.35676 -2.1899,-2.13839 -3.98164,-3.43665 -3.98164,-2.88503 0,0.55162 0.48695,1.4899 1.0821,2.08505 0.77614,0.77614 0.70545,1.68742 -0.25,3.22292 -1.59475,2.56291 -4.40238,2.2995 -4.16038,-0.39033 0.0944,-1.04978 -0.58055,-2.47075 -1.5,-3.15772 -1.51565,-1.13244 -1.36784,-1.55617 1.58327,-4.53876 l 3.25498,-3.28972 6.70836,6.70836 6.70835,6.70835 -2.90043,3.0274 c -3.28115,3.42479 -3.54281,3.50024 -5.28369,1.5236 z m -130.67252,-7.38271 c -0.30141,-0.48768 0.0623,-1.39323 0.8083,-2.01233 1.01879,-0.84553 1.63602,-0.78861 2.48032,0.2287 0.6182,0.74489 0.8279,1.65043 0.46601,2.01233 -0.94334,0.94334 -3.11191,0.81125 -3.75463,-0.2287 z m 140.5749,-1.53574 c -2.97385,-1.59156 -9.14494,-9.3492 -9.14494,-11.49606 0,-0.90037 0.87184,-2.38352 1.93743,-3.29591 1.82752,-1.56477 2.18208,-1.48673 6.25,1.37562 5.44411,3.8307 7.81257,6.54385 7.81257,8.94956 0,2.42211 -2.62848,2.45192 -3.91693,0.0444 -0.54302,-1.01463 -2.68037,-3.13616 -4.74968,-4.71449 l -3.76238,-2.86971 2.86971,3.76238 c 1.57833,2.06931 3.69986,4.20666 4.71449,4.74968 1.86877,1.00013 2.47878,3.40707 1.08224,4.27018 -0.4194,0.2592 -1.81103,-0.0899 -3.09251,-0.77568 z m 123.46769,-37.14465 c -1.11553,-2.90702 -0.63797,-4.43292 1.38737,-4.43292 1.1,0 2,0.45 2,1 0,1.53033 53.71596,1.35211 54.22664,-0.17991 0.2176,-0.65281 1.14021,-0.89329 2.06528,-0.53831 1.27107,0.48776 1.4691,1.19028 0.82586,2.92991 l -0.84612,2.28831 -29.5232,0.26471 c -26.26902,0.23553 -29.59072,0.0887 -30.13583,-1.33179 z m -164.61263,-4.11698 c -6.40799,-2.43718 -8.05415,-9.97374 -3.19528,-14.62885 l 2.80472,-2.68709 h 29.2722 29.27221 l 2.92307,2.92308 c 3.66374,3.66374 3.84721,7.89046 0.51094,11.77116 l -2.41214,2.80576 -28.83786,0.19322 c -15.86082,0.10627 -29.51286,-0.0635 -30.33786,-0.37728 z m 58.06574,-4.35112 c 1.23662,-0.66182 1.93426,-2.09183 1.93426,-3.96482 0,-1.87299 -0.69764,-3.303 -1.93426,-3.96482 -2.89527,-1.5495 -57.30376,-1.39716 -58.86574,0.16482 -1.79868,1.79868 -1.46024,6.54904 0.55,7.7199 2.38514,1.38922 55.72713,1.4303 58.31574,0.0449 z m -57.9205,-2.28981 c -2.39624,-2.88729 1.64248,-6.92601 4.52977,-4.52977 0.78183,0.64886 1.28729,2.11913 1.12325,3.26725 -0.35735,2.50107 -3.95777,3.30517 -5.65302,1.26252 z m 10.19114,-0.2408 c -0.67539,-1.76003 0.5687,-4.56924 2.2755,-5.13817 0.53295,-0.17765 1.8508,0.33171 2.92856,1.13191 1.56691,1.16338 1.73872,1.81731 0.85743,3.26348 -1.49409,2.45178 -5.23001,2.90959 -6.06149,0.74278 z m 10.3762,0.94503 c -2.6938,-2.69379 1.96579,-7.72099 4.8996,-5.28614 2.31308,1.91968 1.3189,5.35663 -1.6496,5.70281 -1.39559,0.16275 -2.85809,-0.0247 -3.25,-0.41667 z m 10.95409,-0.0459 c -1.13016,-1.13015 -0.73839,-4.02892 0.70658,-5.22814 2.81608,-2.33714 6.8587,1.70548 4.52156,4.52156 -1.19922,1.44497 -4.09799,1.83674 -5.22814,0.70658 z m 10.04591,0.0459 c -2.6938,-2.69379 1.96579,-7.72099 4.8996,-5.28614 2.31308,1.91968 1.3189,5.35663 -1.6496,5.70281 -1.39559,0.16275 -2.85809,-0.0247 -3.25,-0.41667 z m 10.43266,-0.70423 c -2.24669,-2.7071 0.94951,-6.34335 4.40886,-5.01588 2.36565,0.90779 1.46203,5.76713 -1.14161,6.13913 -1.14812,0.16404 -2.61839,-0.34142 -3.26725,-1.12325 z m 19.85476,-3.67501 v -11 h 18.5 18.5 v 11 11 h -18.5 -18.5 z m 33.79569,-0.25 0.29569,-6.75 h -15.54569 -15.54569 v 6.33333 c 0,3.48334 0.31153,6.64487 0.6923,7.02564 0.38076,0.38076 7.24326,0.56826 15.25,0.41666 l 14.5577,-0.27563 z m 55.61725,8.31165 c -3.10156,-1.30278 -6.58155,-10.18779 -6.21539,-15.86896 0.23471,-3.64167 0.6384,-4.58349 1.80245,-4.20514 0.825,0.26816 3.975,0.51626 7,0.55134 9.67084,0.11215 10.95752,1.30151 10.98635,10.15535 0.01,2.95281 -0.65231,4.93717 -2.23635,6.70431 -2.46708,2.75225 -8.01962,4.05655 -11.33706,2.6631 z m 7.75832,-4.71664 c 2.14961,-1.94537 2.58403,-9.87197 0.57874,-10.55978 -2.51643,-0.86313 -10.75,0.41307 -10.75,1.66624 0,1.79934 2.1191,7.82971 3.26754,9.29853 1.37062,1.75298 4.73743,1.55548 6.90372,-0.40499 z m 52.09922,4.95194 c -6.02314,-1.16351 -8.59781,-13.06053 -3.85325,-17.80509 2.12857,-2.12856 3.02211,-2.3456 7.48224,-1.81736 3.49778,0.41426 5.55822,0.19054 6.65898,-0.72301 2.47899,-2.05738 3.63405,0.62036 2.96973,6.88464 -0.65384,6.16536 -2.57692,10.38418 -5.74497,12.60317 -2.21975,1.55477 -3.27837,1.67562 -7.51273,0.85765 z m 7.75645,-7.54695 c 3.03729,-6.69129 2.73856,-7.42112 -3.27693,-8.00595 -5.97055,-0.58046 -6.71214,0.018 -6.73469,5.43452 -0.0178,4.26825 2.08012,6.82143 5.60501,6.82143 1.94539,0 2.89178,-0.91276 4.40661,-4.25 z m -371.46783,0.16773 c -1.96929,-1.72905 -3.95776,-4.69251 -4.52922,-6.75 -0.582,-2.09538 -1.01872,-15.88564 -1.01872,-32.167727 0,-16.28209 0.43672,-30.072353 1.01872,-32.167735 0.57146,-2.057485 2.55993,-5.020944 4.52922,-6.75 4.74049,-4.16221 11.75276,-4.373627 16.36418,-0.493372 l 3.07673,2.588893 v 30.244444 c 0,16.634437 -0.3063,30.550737 -0.68067,30.925097 -0.37436,0.37437 -1.96824,-0.5529 -3.54194,-2.0606 -3.27139,-3.13419 -9.3039,-3.75382 -12.30598,-1.264 -4.77596,3.96099 -4.99811,10.45057 -0.51134,14.93734 1.98999,1.98999 3.09268,2.03993 45.03993,2.03993 h 43 v -31 -30.999998 h -35 c -34.40476,0 -35,-0.03422 -35,-2.012321 0,-1.984682 0.50476,-2.008718 36.75,-1.75 l 36.75,0.262321 0.26296,34.749998 0.26296,34.75 h -45.47817 -45.47816 z m 10.10448,-22.69572 5.33643,0.44254 V 84.547603 58.164299 l -3.45217,-1.442408 c -4.04124,-1.68854 -8.05181,-0.645625 -10.69118,2.780154 -1.27645,1.656769 -1.39365,2.532824 -0.52495,3.923842 0.8983,1.438401 0.72971,2.084684 -0.85665,3.283855 -1.77226,1.339707 -1.79537,1.496269 -0.22505,1.524807 1.07273,0.01949 1.75,0.805823 1.75,2.031803 0,1.226511 -0.6768,2.01176 -1.75,2.030409 -1.66667,0.02896 -1.66667,0.07895 0,1.04969 2.03644,1.186118 2.30269,3.495313 0.5,4.336572 -1,0.46666 -1,0.7 0,1.16666 1.75794,0.82037 1.55352,2.46578 -0.5,4.02462 -1.66667,1.26518 -1.66667,1.32996 0,1.36025 1.07273,0.0195 1.75,0.80582 1.75,2.0318 0,1.22598 -0.67727,2.01231 -1.75,2.0318 -1.66667,0.0303 -1.66667,0.0951 0,1.36025 0.9625,0.73064 1.75,2.06633 1.75,2.96819 0,0.90187 -0.7875,1.69196 -1.75,1.75576 -1.66667,0.11048 -1.66667,0.13778 0,0.57333 0.9625,0.25152 1.75,1.16221 1.75,2.02375 0,0.86154 -0.7875,2.16423 -1.75,2.89487 -1.66667,1.265177 -1.66667,1.329957 0,1.360247 0.9625,0.0175 1.75,0.68444 1.75,1.48211 0,0.79767 -0.7875,1.90899 -1.75,2.46959 -1.66667,0.97075 -1.66667,1.02073 0,1.04969 1.0732,0.0187 1.75,0.8039 1.75,2.03041 0,1.11111 -0.66667,2 -1.5,2 -0.825,0 -1.5,0.68656 -1.5,1.52568 0,1.34434 0.37602,1.33123 3.16357,-0.11027 2.19997,-1.13764 4.78901,-1.50115 8.5,-1.1934 z M 47.467295,110.26635 V 88.266353 h 4.5 c 3.76956,0 4.5,0.3114 4.5,1.91844 0,1.72875 2.89648,4.0753 9.48587,7.68487 2.97127,1.62761 13.51413,-4.09401 13.51413,-7.33413 0,-1.85464 0.54805,-2.26918 3,-2.26918 h 3 v -11 -11.000001 h 6 6 v -5 -5 h 4.999995 c 4.62933,0 5,0.180286 5,2.431906 0,2.487377 2.49609,4.76535 8.68426,7.925392 3.1101,1.588201 3.31341,1.550576 8.73028,-1.615615 4.58111,-2.677685 5.54946,-3.720137 5.56574,-5.991683 0.0189,-2.630705 0.23662,-2.75 5.01972,-2.75 h 5 v 11.5 11.500001 h 5.00001 5 v 26.499997 26.5 h -35.38338 c -32.844235,0 -35.418685,-0.12558 -35.875655,-1.75 -0.27075,-0.9625 -2.91567,-3.02603 -5.87759,-4.58562 l -5.3853,-2.83562 -5.73904,3.29634 c -3.15647,1.81298 -5.73904,3.87651 -5.73904,4.58562 0,0.86137 -1.49354,1.28928 -4.5,1.28928 h -4.5 z m 5,0 c 0,-11.999997 -0.36842,-18.999997 -1,-18.999997 -0.63158,0 -1,7 -1,18.999997 0,12 0.36842,19 1,19 0.63158,0 1,-7 1,-19 z m 33,0 c 0,-11.999997 -0.36842,-18.999997 -1,-18.999997 -0.63158,0 -1,7 -1,18.999997 0,12 0.36842,19 1,19 0.63158,0 1,-7 1,-19 z m 12,14.5 v -4.5 h -4 -4 v 4.5 4.5 h 4 4 z m 24.999995,0 v -4.5 h -10.5 -10.5 v 4.5 4.5 h 10.5 10.5 z m 24.15652,0 0.3579,-4.5 H 136.7245 126.46729 v 4.5 4.5 h 9.89931 9.89931 z m -83.400715,-4.72399 c -0.69069,-0.46706 -2.4933,-1.51928 -4.0058,-2.33828 l -2.75,-1.48909 v 4.58966 4.58967 l 4.0058,-2.25138 c 2.83276,-1.59211 3.63806,-2.50006 2.75,-3.10058 z m 16.2442,0.72399 c 0,-1.925 -0.24735,-3.5 -0.54966,-3.5 -0.8912,0 -6.45034,3.01104 -6.45034,3.49374 0,0.53249 5.1876,3.40951 6.25,3.46622 0.4125,0.022 0.75,-1.53496 0.75,-3.45996 z m -5.25,-5.77258 c 2.8875,-1.51861 5.25,-3.15662 5.25,-3.64002 0,-1.07288 -9.20983,-7.0874 -10.85269,-7.0874 -1.63032,0 -12.14731,6.01645 -12.14731,6.94911 0,0.82788 11.18747,7.13661 12,6.76692 0.275,-0.12512 2.8625,-1.46999 5.75,-2.98861 z m 36.249995,-2.72742 v -4 h -10.499995 -10.5 v 4 4 h 10.5 10.499995 z m 24,0 c 0,-4.28263 0.14755,-4.2 -7.5,-4.2 -1.375,0 -4.975,0.045 -8,0.1 l -5.5,0.1 v 4 4 h 10.5 10.5 z m 12.26744,0.75 c 0.65947,-4.33485 0.28134,-4.75 -4.32646,-4.75 -3.93114,0 -3.94098,0.01 -3.94098,4 0,3.98053 0.0189,4 3.8865,4 3.61669,0 3.92084,-0.22563 4.38094,-3.25 z M 63.454915,101.17686 c 0.0104,-0.49678 -1.57306,-1.439047 -6.23762,-3.711757 -0.4125,-0.20098 -0.75,1.70122 -0.75,4.227107 v 4.59253 l 3.48762,-2.2592 c 1.91819,-1.24255 3.49319,-2.52446 3.5,-2.84868 z m 16.01238,0.11065 v -3.978837 l -3.47539,1.72884 c -1.91147,0.95086 -3.48567,1.953837 -3.49822,2.228837 -0.0258,0.56582 5.07362,3.76839 6.22361,3.90857 0.4125,0.0503 0.75,-1.69905 0.75,-3.88741 z m 15.58179,1.97884 c 2.15458,0 2.41821,-0.43608 2.41821,-3.999997 v -4 h -4 -4 v 4.60699 c 0,3.790127 0.28047,4.499357 1.58179,3.999997 0.86998,-0.33385 2.66998,-0.60699 4,-0.60699 z m 50.916135,-0.36083 c 0.94372,-0.36214 1.50208,-1.8891 1.50208,-4.107787 v -3.53138 h -10.50001 -10.5 v 3.92668 c 0,2.868417 0.44905,4.013807 1.6662,4.249997 2.62469,0.50932 16.16757,0.10109 17.83173,-0.53751 z m -23.49793,-3.639167 v -4 h -10.5 -10.5 v 4 3.999997 h 10.5 10.5 z m -12,-12.5 v -4.5 h -10.499995 -10.5 v 4.5 4.5 h 10.5 10.499995 z m 24,0 v -4.5 h -10.5 -10.5 v 4.5 4.5 h 10.5 10.5 z m 12.50001,0 c 0,-3.99098 -0.01,-4.00069 -4.25001,-4.3075 l -4.25,-0.3075 v 4.615 4.615 l 4.25,-0.3075 c 4.24043,-0.30681 4.25001,-0.31652 4.25001,-4.3075 z M 97.467295,74.766352 v -4.5 h -4 -4 v 4.5 4.500001 h 4 4 z m 5.999995,-5.5 c 0,-6 -0.4,-10 -1,-10 -0.6,0 -1,4 -1,10 0,6 0.4,10.000001 1,10.000001 0.6,0 1,-4.000001 1,-10.000001 z m 21.66105,7 c -2.60178,-1.65 -5.27738,-2.992326 -5.94578,-2.982948 -0.6684,0.0094 -3.46527,1.351706 -6.21527,2.982948 l -5,2.965891 10.94578,0.017 10.94578,0.0171 z m 11.33895,-7 c 0,-6 -0.4,-10 -1,-10 -0.6,0 -1,4 -1,10 0,6 0.4,10.000001 1,10.000001 0.6,0 1,-4.000001 1,-10.000001 z m -24.10834,2.941727 c 2.69949,-2.248083 2.75364,-2.104907 -1.64166,-4.340231 l -3.25,-1.652856 v 4.02568 c 0,4.55114 1.20646,5.036375 4.89166,1.967407 z m 18.10834,-2.056737 c 0,-4.026605 -0.0483,-4.084133 -2.25,-2.677752 -1.2375,0.790491 -2.85524,1.795216 -3.59497,2.232722 -1.01181,0.598419 -0.64024,1.260093 1.5,2.671163 3.97474,2.620561 4.34497,2.430875 4.34497,-2.226133 z m 224,40.115008 V 97.266353 h 5.84301 5.84302 l 2.15435,-13.17151 c 1.1849,-7.244331 2.77055,-14.111938 3.52367,-15.261349 1.26259,-1.926955 4.38857,-3.315631 22.63595,-10.055724 3.575,-1.32051 9.425,-3.496415 13,-4.835346 22.21032,-8.318347 24.82009,-9.023976 27.31909,-7.386563 1.29922,0.851277 4.0534,4.970484 6.12041,9.153792 3.65919,7.405617 3.71333,7.674505 2.05493,10.205547 -1.39816,2.133852 -1.64258,4.503044 -1.36444,13.225343 0.21041,6.59836 0.84996,11.46006 1.68735,12.82685 0.74169,1.21057 1.07856,3.05158 0.74862,4.09114 -0.39373,1.24053 0.43694,3.1948 2.41707,5.686467 2.64205,3.32459 3.01697,4.58702 3.01697,10.15885 v 6.3625 h -9.5 -9.5 v -6.3625 c 0,-5.4983 0.38942,-6.85251 2.86703,-9.97018 2.01264,-2.532577 2.72291,-4.361577 2.38342,-6.137497 -0.57623,-3.01436 2.04366,-3.57113 3.66945,-0.77982 0.56061,0.9625 1.03297,1.33543 1.04969,0.82874 0.0167,-0.50669 -0.70988,-1.73928 -1.61469,-2.73907 -1.35817,-1.50077 -1.6125,-3.89832 -1.45819,-13.74633 l 0.18691,-11.928507 -3.25231,-3.832417 c -1.78877,-2.107829 -3.38782,-4.025155 -3.55345,-4.260723 -0.16562,-0.235568 -3.1084,0.852493 -6.5395,2.417913 -3.4311,1.56542 -8.15086,3.670657 -10.48836,4.678306 -2.3375,1.007648 -6.1625,2.696941 -8.5,3.753984 -2.3375,1.057043 -7.33766,3.301564 -11.11146,4.987825 -6.04898,2.702879 -6.79715,3.333799 -6.31828,5.328099 0.29875,1.2442 0.79891,3.94968 1.11146,6.01218 1.79335,11.83413 0.97638,10.61761 7.35443,10.95117 l 5.71385,0.29883 0.27988,12.749997 c 0.23925,10.89929 0.0578,12.75 -1.25,12.75 -1.28045,0 -1.52988,-1.79341 -1.52988,-11 v -11 h -21 c -13.33333,0 -21,0.36508 -21,1 0,0.55 0.675,1 1.5,1 0.83333,0 1.5,0.88889 1.5,2 0,1.11111 -0.66667,2 -1.5,2 -0.825,0 -1.5,0.45 -1.5,1 0,0.55 0.675,1 1.5,1 2.10006,0 1.88238,3.75342 -0.25,4.31067 -1.66667,0.43555 -1.66667,0.46285 0,0.57333 1.04467,0.0692 1.75,0.9221 1.75,2.116 0,1.22651 -0.6768,2.01176 -1.75,2.03041 -1.66667,0.029 -1.66667,0.0789 0,1.04969 2.85586,1.66339 2.13629,3.9199 -1.25,3.9199 h -3 z m 91,2 c 0,-2.9697 -0.0556,-3 -5.5,-3 -5.44444,0 -5.5,0.0303 -5.5,3 0,2.9697 0.0556,3 5.5,3 5.44444,0 5.5,-0.0303 5.5,-3 z m -1,-7.32569 c 0,-0.17912 -1.04419,-1.30665 -2.32042,-2.5056 l -2.32042,-2.17992 -2.35389,2.5056 -2.3539,2.50561 h 4.67432 c 2.57087,0 4.67431,-0.14656 4.67431,-0.32569 z m -58.04668,-9.424307 c -0.0257,-0.9625 -0.58817,-4.63087 -1.25,-8.15194 l -1.20332,-6.40194 -5.63344,-0.16647 -5.63344,-0.16647 -1.11656,6.76104 c -1.74351,10.55737 -2.21858,9.87578 6.88344,9.87578 6.97016,0 7.99399,-0.22528 7.95332,-1.75 z m -4.5593,-20.500001 c 1.49594,-2.38913 -0.32657,-5.157536 -3.65904,-5.558139 -2.88452,-0.346754 -4.34378,2.314632 -3.21653,5.866278 0.80398,2.533102 5.22049,2.335172 6.87557,-0.308139 z m 8.60598,-2.75 c 0,-0.55 -0.19844,-1 -0.44098,-1 -0.24254,0 -0.7191,0.45 -1.05902,1 -0.33992,0.55 -0.14148,1 0.44098,1 0.58246,0 1.05902,-0.45 1.05902,-1 z m 6,-5.5 c 1.03599,-1.248296 0.90928,-1.5 -0.75511,-1.5 -1.1,0 -2.5602,0.675 -3.24489,1.5 -1.03599,1.248296 -0.90928,1.5 0.75511,1.5 1.1,0 2.5602,-0.675 3.24489,-1.5 z m 5.5,0.5 c 0.33992,-0.55 0.39303,-1 0.11803,-1 -0.275,0 -0.77811,0.45 -1.11803,1 -0.33992,0.55 -0.39303,1 -0.11803,1 0.275,0 0.77811,-0.45 1.11803,-1 z m -13.481,-1.522892 c 1.05678,-1.273347 0.99492,-1.419678 -0.37756,-0.893011 -0.90279,0.346434 -1.64144,1.031736 -1.64144,1.522892 0,1.285959 0.57887,1.105364 2.019,-0.629881 z m 51.981,-1.977108 c 0,-0.275 -0.225,-0.5 -0.5,-0.5 -0.275,0 -0.5,0.225 -0.5,0.5 0,0.275 0.225,0.5 0.5,0.5 0.275,0 0.5,-0.225 0.5,-0.5 z m -31.24499,-2.25 c 0.60867,-1.84822 -3.43079,-1.537293 -4.14308,0.318903 -0.4505,1.173998 -0.0567,1.488633 1.56469,1.25 1.1917,-0.175397 2.35197,-0.881403 2.57839,-1.568903 z m -9.08834,0.08333 c -0.36667,-0.366666 -0.96667,-0.366666 -1.33334,0 -0.36666,0.36667 -0.0667,0.66667 0.66667,0.66667 0.73333,0 1.03333,-0.3 0.66667,-0.666667 z m 14.33333,0.16667 c 0,-0.275 -0.225,-0.5 -0.5,-0.5 -0.275,0 -0.5,0.225 -0.5,0.5 0,0.275 0.225,0.5 0.5,0.5 0.275,0 0.5,-0.225 0.5,-0.5 z m 23.375,-2.297746 c 0.27117,-0.43876 0.12304,-1.396412 -0.32918,-2.128115 -1.06503,-1.723262 -3.13288,-0.464602 -2.39516,1.457886 0.61507,1.602835 1.94565,1.930179 2.72434,0.670229 z m -17.01337,-2.702254 c 0.38461,-1.002298 -0.0421,-1.5 -1.28603,-1.5 -1.02389,0 -2.12064,0.675 -2.43723,1.5 -0.38461,1.002298 0.0421,1.5 1.28603,1.5 1.02389,0 2.12064,-0.675 2.43723,-1.5 z m -8.36163,0 c 0,-0.275 -0.225,-0.5 -0.5,-0.5 -0.275,0 -0.5,0.225 -0.5,0.5 0,0.275 0.225,0.5 0.5,0.5 0.275,0 0.5,-0.225 0.5,-0.5 z m 21.7094,-5.126793 c 0.49411,-1.484194 -2.77493,-2.70768 -3.98949,-1.493122 -0.5201,0.520108 -0.6279,1.459776 -0.23954,2.088151 0.8522,1.378898 3.70553,0.977433 4.22903,-0.595029 z M 233.9673,117.13049 c -1.87201,-1.88791 -1.89028,-2.09749 -0.28551,-3.27484 1.40317,-1.02945 1.76633,-3.23777 2,-12.16172 0.2476,-9.456027 0.51788,-10.948377 2.03551,-11.239047 1.60194,-0.30682 1.75,0.89777 1.75,14.238147 0,13.23533 -0.16067,14.56786 -1.75,14.51389 -0.9625,-0.0327 -2.65,-0.96708 -3.75,-2.07643 z m 50.72254,-12.10165 c 0.24624,-12.635497 0.47437,-14.275297 2.02746,-14.573327 1.5852,-0.30419 1.75,0.75404 1.75,11.237517 0,9.62073 0.25307,11.57332 1.5,11.57332 0.83333,0 1.5,0.88889 1.5,2 0,1.11111 -0.66667,2 -1.5,2 -0.825,0 -1.5,0.45 -1.5,1 0,0.55 -0.91236,1 -2.02746,1 -1.95466,0 -2.01749,-0.51116 -1.75,-14.23751 z m 218.87155,10.98751 c -0.47102,-1.2375 -1.58488,-3.99246 -2.47525,-6.12212 -3.40049,-8.13362 -1.13908,-13.476157 6.40564,-15.133257 4.85694,-1.06676 6.90116,0.19869 8.2068,5.08035 l 1.18352,4.425027 h 27.6813 27.68131 l 0.63085,-3.36271 c 0.9093,-4.846987 3.6932,-7.028437 7.95029,-6.229797 4.87985,0.91546 8.64718,4.15811 8.61492,7.415087 -0.0451,4.55348 -4.38546,15.63308 -6.26603,15.99524 -2.11525,0.40736 -2.20106,-1.70068 -0.25848,-6.34994 l 1.44898,-3.46788 h -39.56561 -39.5656 l 0.6407,2.25 c 1.82635,6.4137 1.8596,7.75 0.19281,7.75 -0.90736,0 -2.03513,-1.0125 -2.50615,-2.25 z m 3.19565,-13.75 c 0.31292,-1.1966 1.36401,-2 2.61663,-2 1.15149,0 2.09362,-0.449997 2.09362,-0.999997 0,-1.37287 -1.45432,-1.25484 -5.53212,0.44897 -3.37073,1.408387 -4.16953,2.516047 -2.80121,3.884357 1.30215,1.30216 3.10764,0.63772 3.62308,-1.33333 z m 5.71025,1.5 c 0,-0.275 -0.225,-0.5 -0.5,-0.5 -0.275,0 -0.5,0.225 -0.5,0.5 0,0.275 0.225,0.5 0.5,0.5 0.275,0 0.5,-0.225 0.5,-0.5 z m 73,-1.40217 c 0,-1.23449 -1.10541,-2.28753 -3.14922,-3.000007 -3.89356,-1.3573 -4.85078,-1.3766 -4.85078,-0.0978 0,0.55 0.94213,0.999997 2.09362,0.999997 1.25262,0 2.30371,0.8034 2.61663,2 0.66563,2.54537 3.28975,2.62341 3.28975,0.0978 z M 241.4673,115.26635 c 0,-1.90123 0.66667,-2 13.5,-2 h 13.5 v -6.5 -6.5 h -7.5 -7.5 v 3.5 c 0,2.83333 -0.38095,3.5 -2,3.5 -1.61905,0 -2,-0.66667 -2,-3.5 0,-3.41667 -0.0952,-3.5 -4,-3.5 -2.88889,0 -4,-0.416667 -4,-1.499997 0,-1.28571 3,-1.5 21,-1.5 18,0 21,0.21429 21,1.5 0,1.15151 -1.27778,1.499997 -5.5,1.499997 h -5.5 v 6.5 6.5 h 5.5 c 4.83333,0 5.5,0.24242 5.5,2 0,1.93651 -0.66667,2 -21,2 -20.33333,0 -21,-0.0635 -21,-2 z m 8.5,-4 c -0.83704,-1.35436 0.29243,-3 2.05902,-3 0.79254,0 1.44098,0.9 1.44098,2 0,2.07031 -2.41251,2.7596 -3.5,1 z m 287.76645,-9.65679 c -5.27928,-1.869147 -11.16692,-8.378857 -13.52302,-14.951817 -2.41129,-6.72695 -2.32082,-10.391391 0.25656,-10.391391 1.43842,0 2,0.666667 2,2.374271 0,3.32471 2.55069,10.18599 5.13681,13.81786 2.97342,4.17579 9.9792,7.18954 14.71557,6.33036 7.99932,-1.45108 14.62744,-9.22538 15.8899,-18.6377 0.39774,-2.965401 0.94404,-3.897277 2.14566,-3.660046 3.6537,0.721336 0.21519,13.644046 -5.23054,19.657596 -2.69876,2.98016 -11.33347,7.120917 -14.6574,7.028937 -1.375,-0.038 -4.40509,-0.74368 -6.73354,-1.56807 z M 249.4673,92.306793 v -2.95956 l -8.25,-0.29044 c -9.05282,-0.3187 -10.528,-1.58455 -5.36472,-4.60346 2.18461,-1.27731 2.99408,-1.38343 3.33333,-0.43698 0.57011,1.59051 45.28139,1.83736 45.28139,0.25 0,-0.55 0.9,-1 2,-1 1.1,0 2,0.45 2,1 0,0.55 0.675,1 1.5,1 0.83333,0 1.5,0.88889 1.5,2 0,1.92982 -0.66667,2 -19,2 h -19 v 3 c 0,2.33333 -0.44444,3 -2,3 -1.54948,0 -2,-0.66667 -2,-2.95956 z M 514.46729,72.716692 c 0,-3.209437 2.44136,-8.021991 4.46301,-8.797774 0.84535,-0.324388 1.5395,-1.61642 1.54257,-2.871181 0.013,-5.311736 2.31708,-10.199286 7.0299,-14.9121 4.96616,-4.966159 7.3322,-5.959457 8.28446,-3.477926 0.31743,0.827229 -1.09265,2.698502 -3.47781,4.615268 -5.49878,4.41894 -7.83262,8.582028 -7.84471,13.993373 -0.009,3.947016 -0.37794,4.709334 -3.00374,6.20349 -1.64653,0.936919 -2.99368,2.174419 -2.99368,2.75 0,0.701847 8.56298,1.04651 26,1.04651 17.43702,0 26,-0.344663 26,-1.04651 0,-0.575581 -1.34715,-1.813081 -2.99368,-2.75 -2.4944,-1.419389 -2.99473,-2.334256 -3,-5.485609 -0.009,-5.612888 -2.20067,-9.872686 -7.34529,-14.279001 -3.20508,-2.745126 -4.34543,-4.346297 -3.76264,-5.283182 0.69388,-1.115501 1.32685,-1.089123 3.71891,0.154986 5.63763,2.932121 11.3827,11.811542 11.3827,17.592774 0,1.757654 0.75641,3.519932 1.8413,4.289838 2.46425,1.748788 4.1587,5.106545 4.1587,8.240963 v 2.565741 h -30 -30 z m 23,-29.45034 v -7 h 7 7 v 7 c 0,6.333333 -0.19048,7 -2,7 -1.73333,0 -2,-0.666667 -2,-5 0,-4.888889 -0.0667,-5 -3,-5 -2.93333,0 -3,0.111111 -3,5 0,4.333333 -0.26667,5 -2,5 -1.80952,0 -2,-0.666667 -2,-7 z"
       id="path24530"
       clip-path="url(#clipPath24531)"
       transform="matrix(0.89707111,0,0,0.89707111,54.717559,22.179395)" />
  </g>
</svg>
